<svg width="1397" height="728" viewBox="0 0 1397 728" fill="none" xmlns="http://www.w3.org/2000/svg">
<path d="M1370.93 174.672C1339.36 210.728 1321.88 255.524 1305.3 299.478C1288.73 343.432 1272.05 388.368 1241.64 425.302C1211.24 462.236 1164.06 490.431 1114.35 487.319C1016.96 481.212 953.068 380.717 862.097 354.089C832.816 345.514 798.57 346.614 774.154 363.987C739.995 388.286 736.005 437.68 755.317 473.526C774.629 509.372 811.59 533.881 849.289 553.056C878.245 567.785 908.502 580.268 939.647 590.353C978.897 603.047 1021.44 612.944 1050.84 640.379C1088.12 675.16 1080.47 702.384 1060.01 727.701H1475V135H1417.8C1400.25 146.032 1384.35 159.346 1370.93 174.672Z" fill="#F5F4FF"/>
<path opacity="0.2" d="M73.3461 702.103L76.1843 703.047L79.0215 703.988L81.8573 704.925L84.6911 705.855L87.5226 706.778L90.3511 707.692L93.1764 708.596L95.9978 709.487L98.815 710.365L101.627 711.229L104.435 712.075L107.236 712.905L110.032 713.715L112.821 714.504L115.603 715.271L118.377 716.016L121.144 716.735L123.902 717.429L126.652 718.096L129.393 718.734L132.124 719.342L134.846 719.92L137.557 720.465L140.258 720.978L142.948 721.456L145.627 721.898L148.293 722.304L150.948 722.673L153.591 723.003L156.221 723.293L158.839 723.544L161.443 723.753L164.034 723.919L166.611 724.043L169.174 724.124L171.723 724.159L174.258 724.15L176.778 724.095L179.284 723.993L181.774 723.845L184.25 723.649L186.71 723.405L189.155 723.113L191.584 722.772L193.997 722.382L196.395 721.942L198.777 721.453L201.143 720.913L203.493 720.324L205.828 719.684L208.146 718.994L210.448 718.254L212.734 717.463L215.004 716.622L217.258 715.731L219.496 714.79L221.719 713.798L223.925 712.757L226.116 711.667L228.291 710.528L230.451 709.34L232.595 708.104L234.724 706.82L236.838 705.488L238.938 704.11L241.022 702.686L243.092 701.216L245.148 699.701L247.189 698.141L249.217 696.539L251.231 694.893L253.232 693.206L255.22 691.478L257.195 689.71L259.157 687.902L261.107 686.056L263.046 684.173L264.973 682.254L266.889 680.3L268.794 678.311L270.688 676.29L272.573 674.237L274.447 672.154L276.313 670.041L278.169 667.9L280.017 665.732L281.857 663.539L283.689 661.321L285.514 659.081L287.332 656.819L289.143 654.537L290.949 652.236L292.749 649.918L294.544 647.584L296.334 645.235L298.12 642.873L299.903 640.5L301.682 638.117L303.459 635.725L305.233 633.326L307.005 630.922L308.777 628.513L310.547 626.102L312.317 623.689L314.087 621.277L315.858 618.867L317.63 616.461L319.404 614.059L321.179 611.664L322.957 609.277L324.738 606.899L326.523 604.532L328.311 602.177L330.104 599.837L331.902 597.511L333.705 595.203L335.514 592.912L337.329 590.641L339.15 588.391L340.979 586.163L342.816 583.959L344.66 581.78L346.512 579.627L348.374 577.502L350.244 575.405L352.125 573.339L354.015 571.303L355.915 569.3L357.826 567.331L359.748 565.396L361.681 563.497L363.626 561.635L365.584 559.81L367.553 558.025L369.535 556.279L371.53 554.573L373.538 552.91L375.56 551.288L377.596 549.71L379.645 548.175L381.709 546.685L383.787 545.241L385.879 543.842L387.987 542.49L390.109 541.185L392.247 539.928L394.4 538.719L396.568 537.558L398.752 536.446L400.952 535.383L403.167 534.37L405.398 533.407L407.645 532.494L409.909 531.631L412.188 530.818L414.483 530.055L416.794 529.343L419.121 528.681L421.464 528.07L423.823 527.509L426.198 526.997L428.589 526.536L430.996 526.124L433.418 525.761L435.856 525.448L438.309 525.183L440.778 524.966L443.262 524.796L445.761 524.674L448.275 524.599L450.803 524.57L453.346 524.586L455.903 524.646L458.474 524.751L461.059 524.899L463.657 525.09L466.269 525.322L468.893 525.595L471.531 525.908L474.18 526.26L476.842 526.649L479.516 527.076L482.201 527.538L484.897 528.036L487.603 528.567L490.32 529.13L493.047 529.725L495.784 530.351L498.53 531.005L501.285 531.687L504.048 532.395L506.819 533.129L509.598 533.886L512.384 534.666L515.177 535.467L517.976 536.288L520.78 537.128L523.591 537.984L526.406 538.855L529.225 539.741L532.049 540.64L534.876 541.549L537.706 542.468L540.539 543.396L543.374 544.33L546.211 545.269L549.049 546.212L551.887 547.157L554.726 548.103L557.564 549.048L560.402 549.99L563.238 550.929L566.073 551.862L568.906 552.789L571.736 553.707L574.562 554.615L577.386 555.512L580.205 556.396L583.019 557.266L585.829 558.121L588.633 558.958L591.431 559.776L594.223 560.575L597.008 561.352L599.786 562.107L602.556 562.837L605.318 563.543L608.072 564.221L610.817 564.872L613.552 565.494L616.278 566.085L618.994 566.645L621.7 567.172L624.394 567.665L627.078 568.123L629.75 568.545L632.41 568.931L635.059 569.278L637.694 569.586L640.317 569.854L642.927 570.081L645.524 570.266L648.107 570.409L650.677 570.509L653.232 570.564L655.773 570.575L658.3 570.54L660.812 570.459L663.309 570.331L665.791 570.156L668.258 569.934L670.709 569.663L673.145 569.343L675.566 568.974L677.971 568.557L680.36 568.089L682.733 567.572L685.09 567.004L687.431 566.387L689.756 565.719L692.065 565.001L694.359 564.232L696.636 563.413L698.897 562.544L701.142 561.625L703.371 560.655L705.585 559.636L707.782 558.568L709.964 557.45L712.131 556.283L714.282 555.068L716.418 553.805L718.538 552.494L720.644 551.137L722.735 549.732L724.811 548.282L726.873 546.787L728.921 545.247L730.955 543.664L732.975 542.037L734.981 540.368L736.975 538.658L738.955 536.907L740.923 535.116L742.879 533.287L744.823 531.421L746.755 529.517L748.675 527.578L750.585 525.605L752.484 523.598L754.373 521.558L756.252 519.488L758.121 517.388L759.982 515.259L761.833 513.103L763.677 510.921L765.512 508.714L767.34 506.483L769.161 504.231L770.975 501.957L772.783 499.665L774.586 497.354L776.383 495.027L778.175 492.684L779.963 490.328L781.747 487.96L783.528 485.581L785.305 483.192L787.081 480.796L788.854 478.394L790.626 475.987L792.396 473.577L794.166 471.165L795.937 468.752L797.707 466.341L799.478 463.933L801.251 461.529L803.026 459.131L804.803 456.74L806.582 454.358L808.365 451.986L810.152 449.626L811.943 447.279L813.738 444.947L815.539 442.63L817.345 440.332L819.157 438.052L820.976 435.793L822.802 433.555L824.635 431.34L826.476 429.15L828.324 426.985L830.182 424.848L832.048 422.738L833.924 420.658L835.81 418.609L837.706 416.592L839.612 414.608L841.529 412.657L843.457 410.743L845.397 408.864L847.349 407.023L849.313 405.22L851.29 403.456L853.279 401.733L855.281 400.051L857.297 398.411L859.327 396.813L861.37 395.259L863.427 393.75L865.499 392.285L867.585 390.866L869.686 389.494L871.802 388.168L873.933 386.89L876.079 385.659L878.241 384.477L880.418 383.344L882.61 382.26L884.819 381.225L887.043 380.239L889.283 379.304L891.539 378.419L893.811 377.584L896.099 376.799L898.403 376.065L900.723 375.381L903.06 374.748L905.412 374.164L907.78 373.631L910.164 373.148L912.563 372.714L914.979 372.33L917.41 371.995L919.856 371.708L922.318 371.47L924.796 371.28L927.288 371.137L929.795 371.042L932.317 370.992L934.854 370.988L937.405 371.029L939.97 371.115L942.548 371.244L945.141 371.416L947.747 371.63L950.366 371.885L952.997 372.181L955.642 372.515L958.298 372.889L960.967 373.299L963.646 373.746L966.338 374.228L969.04 374.744L971.752 375.294L974.475 375.875L977.208 376.487L979.949 377.129L982.7 377.799L985.46 378.496L988.228 379.219L991.003 379.966L993.786 380.736L996.576 381.528L999.372 382.34L1002.17 383.172L1004.98 384.021L1007.8 384.886L1010.61 385.765L1013.43 386.658L1016.26 387.563L1019.09 388.478L1021.92 389.402L1024.76 390.334L1027.59 391.271L1030.43 392.212L1033.27 393.157L1036.11 394.102L1038.94 395.048L1041.78 395.992L1044.62 396.932L1047.45 397.868L1050.29 398.798L1053.12 399.72L1055.95 400.633L1058.77 401.535L1061.59 402.425L1064.41 403.301L1067.22 404.162L1070.03 405.007L1072.83 405.834L1075.62 406.641L1078.41 407.428L1081.19 408.193L1083.97 408.934L1086.73 409.651L1089.49 410.341L1092.24 411.005L1094.98 411.639L1097.71 412.244L1100.43 412.818L1103.14 413.359L1105.84 413.868L1108.53 414.341L1111.2 414.779L1113.87 415.181L1116.52 415.545L1119.16 415.87L1121.79 416.156L1124.41 416.401L1127.01 416.605L1129.6 416.767L1132.18 416.886L1134.74 416.96L1137.29 416.991L1139.82 416.976L1142.34 416.915L1144.84 416.808L1147.33 416.654L1149.8 416.452L1152.26 416.203L1154.7 415.905L1157.13 415.558L1159.54 415.161L1161.94 414.716L1164.32 414.22L1166.68 413.675L1169.03 413.08L1171.36 412.434L1173.68 411.738L1175.98 410.991L1178.26 410.194L1180.53 409.347L1182.78 408.45L1185.02 407.503L1187.24 406.505L1189.45 405.459L1191.63 404.362L1193.81 403.217L1195.97 402.023L1198.11 400.781L1200.24 399.491L1202.35 398.154L1204.45 396.77L1206.53 395.34L1208.6 393.865L1210.65 392.345L1212.69 390.78L1214.72 389.172L1216.73 387.522L1218.73 385.83L1220.71 384.096L1222.69 382.323L1224.65 380.511L1226.6 378.661L1228.53 376.773L1230.46 374.85L1232.37 372.891L1234.28 370.899L1236.17 368.874L1238.05 366.817L1239.93 364.73L1241.79 362.614L1243.65 360.469L1245.49 358.298L1247.33 356.102L1249.16 353.882L1250.99 351.639L1252.81 349.374L1254.62 347.09L1256.42 344.787L1258.22 342.466L1260.02 340.131L1261.8 337.78L1263.59 335.417L1265.37 333.043L1267.15 330.658L1268.93 328.265L1270.7 325.866L1272.47 323.461L1274.25 321.051L1276.02 318.64L1277.79 316.228L1279.56 313.816L1281.33 311.406L1283.1 309L1284.87 306.599L1286.65 304.205L1288.43 301.819L1290.21 299.442L1291.99 297.077L1293.78 294.724L1295.58 292.385L1297.37 290.061L1299.18 287.755L1300.99 285.467L1302.8 283.198L1304.63 280.951L1306.46 278.726L1308.29 276.525L1310.14 274.349L1311.99 272.199L1313.85 270.077L1315.73 267.984L1317.61 265.921L1319.5 263.89L1321.4 261.891L1323.31 259.925L1325.24 257.995L1327.17 256.1L1329.12 254.243L1331.08 252.423L1333.05 250.642L1335.03 248.901L1337.03 247.2L1339.04 245.541L1341.06 243.925L1343.1 242.352L1345.15 240.823L1347.21 239.338L1349.29 237.899L1351.39 236.506L1353.5 235.16L1355.62 233.861L1357.76 232.609L1359.92 231.406L1362.09 230.251L1364.27 229.145L1366.47 228.089L1368.69 227.081L1370.92 226.124L1373.17 225.217L1375.44 224.36L1377.72 223.553L1380.02 222.797L1382.33 222.091L1384.66 221.435L1387 220.83L1389.36 220.274L1391.74 219.769L1394.13 219.314L1396.54 218.908L1398.97 218.551L1401.41 218.243L1403.86 217.984L1406.33 217.773L1408.82 217.609L1411.32 217.493L1413.83 217.423L1416.36 217.399L1418.91 217.421L1421.47 217.487L1424.04 217.597L1426.63 217.75L1429.23 217.946L1431.84 218.183L1434.47 218.461L1437.11 218.779L1439.76 219.135L1442.42 219.529L1445.09 219.96L1447.78 220.427L1450.48 220.929L1453.19 221.464L1455.9 222.031L1458.63 222.63L1461.37 223.259L1464.12 223.916L1466.87 224.602L1469.64 225.313L1472.41 226.05L1475.19 226.81L1477.98 227.592L1480.77 228.396L1483.57 229.219L1486.37 230.061L1489.19 230.919L1492 231.792L1494.82 232.679L1497.65 233.579L1500.47 234.49L1503.3 235.41L1506.14 236.339L1508.97 237.273L1511.81 238.213L1514.65 239.157L1517.49 240.102" stroke="url(#paint0_linear_1601:2248)" stroke-width="4"/>
<g opacity="0.4" filter="url(#filter0_f_1601:2248)">
<circle cx="677" cy="340" r="140" fill="url(#paint1_linear_1601:2248)"/>
</g>
<ellipse cx="123" cy="781.5" rx="123" ry="113.5" fill="url(#paint2_linear_1601:2248)"/>
<defs>
<filter id="filter0_f_1601:2248" x="337" y="0" width="680" height="680" filterUnits="userSpaceOnUse" color-interpolation-filters="sRGB">
<feFlood flood-opacity="0" result="BackgroundImageFix"/>
<feBlend mode="normal" in="SourceGraphic" in2="BackgroundImageFix" result="shape"/>
<feGaussianBlur stdDeviation="100" result="effect1_foregroundBlur_1601:2248"/>
</filter>
<linearGradient id="paint0_linear_1601:2248" x1="-275.394" y1="470.287" x2="913.894" y2="1495.84" gradientUnits="userSpaceOnUse">
<stop stop-color="#B294FC"/>
<stop offset="1" stop-color="#86BDFE"/>
</linearGradient>
<linearGradient id="paint1_linear_1601:2248" x1="488.613" y1="-434.375" x2="1033.79" y2="-365.651" gradientUnits="userSpaceOnUse">
<stop stop-color="#B294FC"/>
<stop offset="1" stop-color="#86BDFE"/>
</linearGradient>
<linearGradient id="paint2_linear_1601:2248" x1="-42.5115" y1="153.703" x2="435.162" y2="218.958" gradientUnits="userSpaceOnUse">
<stop stop-color="#FA94FC"/>
<stop offset="1" stop-color="#86BDFE"/>
</linearGradient>
</defs>
</svg>
