<svg width="118" height="118" viewBox="0 0 118 118" fill="none" xmlns="http://www.w3.org/2000/svg">
<g clip-path="url(#clip0)">
<path d="M99.1809 113.931V115.966C99.1809 117.09 98.2704 118 97.1464 118H20.8533C19.7292 118 18.8188 117.09 18.8188 115.966V113.931C18.8188 110.561 21.5526 107.828 24.9222 107.828V2.03448C24.9222 0.910431 25.8327 0 26.9567 0H91.0429C92.167 0 93.0774 0.910431 93.0774 2.03448V107.828C96.447 107.828 99.1809 110.561 99.1809 113.931Z" fill="url(#paint0_linear)"/>
<path d="M93.0774 107.827C96.4483 107.827 99.1809 110.56 99.1809 113.931V115.965C99.1809 117.089 98.2699 118 97.1464 118H20.8533C19.7297 118 18.8188 117.089 18.8188 115.965V113.931C18.8188 110.56 21.5514 107.827 24.9222 107.827H93.0774Z" fill="url(#paint1_linear)"/>
<path d="M81.3792 84.1761V94.8571C81.3792 95.9807 80.4682 96.8916 79.3447 96.8916H38.655C37.5315 96.8916 36.6205 95.9807 36.6205 94.8571V84.1761C36.6205 83.0525 37.5315 82.1416 38.655 82.1416H79.3447C80.4682 82.1416 81.3792 83.0525 81.3792 84.1761Z" fill="url(#paint2_linear)"/>
<path d="M81.3792 12.7151V50.8617C81.3792 51.9852 80.4682 52.8962 79.3447 52.8962H38.655C37.5315 52.8962 36.6205 51.9852 36.6205 50.8617V12.7151C36.6205 11.5916 37.5315 10.6807 38.655 10.6807H79.3447C80.4682 10.6807 81.3792 11.5916 81.3792 12.7151Z" fill="url(#paint3_linear)"/>
<path d="M49.8446 65.8661C49.8446 66.9901 48.9342 67.9006 47.8101 67.9006H42.467C42.4009 70.0164 40.6589 71.7152 38.5278 71.7152C36.3534 71.7152 34.586 69.9478 34.586 67.7734C34.586 65.2145 36.9689 63.6358 38.5914 63.8341C38.6231 63.8303 47.7781 63.8316 47.8101 63.8316C48.9342 63.8316 49.8446 64.742 49.8446 65.8661Z" fill="white"/>
<path d="M81.3792 12.7159V50.8624C81.3792 51.986 80.4682 52.8969 79.3447 52.8969H38.655C37.5315 52.8969 36.6205 51.986 36.6205 50.8624V47.6279C36.6205 46.3766 37.741 45.4164 38.9757 45.6201C60.6155 49.1898 75.9034 32.3685 75.6132 12.7515C75.5964 11.6142 76.5081 10.6816 77.6454 10.6816H79.3447C80.4682 10.6814 81.3792 11.5923 81.3792 12.7159Z" fill="white" fill-opacity="0.44"/>
<path d="M93.0775 2.03448V5.59483C93.0775 6.71837 92.1665 7.62931 91.043 7.62931H34.5861C33.4626 7.62931 32.5516 8.54025 32.5516 9.66379V107.828H24.9223V2.03448C24.9223 0.91094 25.8332 0 26.9568 0H91.043C92.1665 0 93.0775 0.91094 93.0775 2.03448Z" fill="url(#paint4_linear)"/>
<path d="M93.2465 111.893C86.0625 111.886 69.2862 111.896 29.7541 111.896C26.9109 111.896 24.5204 113.842 23.8429 116.475C23.609 117.383 22.7624 118 21.8245 118H20.8533C19.7297 118 18.8188 117.089 18.8188 115.965V113.931C18.8188 110.56 21.5514 107.827 24.9222 107.827H93.0774C96.1515 107.827 95.8405 111.896 93.2465 111.893Z" fill="url(#paint5_linear)"/>
</g>
<defs>
<linearGradient id="paint0_linear" x1="4.93133" y1="-267.344" x2="162.724" y2="-253.797" gradientUnits="userSpaceOnUse">
<stop stop-color="#5D23E9"/>
<stop offset="1" stop-color="#6DA7F0"/>
</linearGradient>
<linearGradient id="paint1_linear" x1="58.9998" y1="107.827" x2="58.0332" y2="124.582" gradientUnits="userSpaceOnUse">
<stop stop-color="#BE6CFD"/>
<stop offset="1" stop-color="#7367FF"/>
</linearGradient>
<linearGradient id="paint2_linear" x1="28.8858" y1="48.7236" x2="106.117" y2="78.2666" gradientUnits="userSpaceOnUse">
<stop stop-color="#FA94FC"/>
<stop offset="1" stop-color="#86BDFE"/>
</linearGradient>
<linearGradient id="paint3_linear" x1="28.8858" y1="-84.9639" x2="115.865" y2="-73.3389" gradientUnits="userSpaceOnUse">
<stop stop-color="#FA94FC"/>
<stop offset="1" stop-color="#86BDFE"/>
</linearGradient>
<linearGradient id="paint4_linear" x1="13.1443" y1="-244.297" x2="147.105" y2="-233.623" gradientUnits="userSpaceOnUse">
<stop stop-color="#5D23E9"/>
<stop offset="1" stop-color="#6DA7F0"/>
</linearGradient>
<linearGradient id="paint5_linear" x1="57.0533" y1="107.827" x2="56.0378" y2="124.576" gradientUnits="userSpaceOnUse">
<stop stop-color="#BE6CFD"/>
<stop offset="1" stop-color="#7367FF"/>
</linearGradient>
<clipPath id="clip0">
<rect width="118" height="118" fill="white" transform="translate(-0.000183105)"/>
</clipPath>
</defs>
</svg>
