<svg width="1440" height="935" viewBox="0 0 1440 935" fill="none" xmlns="http://www.w3.org/2000/svg">
<g opacity="0.4" filter="url(#filter0_f)">
<path d="M1527 116.5C1527 390.709 1133.43 735 680 735C226.574 735 -141 512.709 -141 238.5C-141 -35.7094 252.574 -380 706 -380C1159.43 -380 1527 -157.709 1527 116.5Z" fill="url(#paint0_linear)"/>
</g>
<path opacity="0.5" d="M-856.38 -300.434L-851.247 -294.272L-846.112 -288.12L-840.974 -281.981L-835.834 -275.861L-830.69 -269.765L-825.542 -263.696L-820.388 -257.661L-815.229 -251.662L-810.063 -245.706L-804.889 -239.796L-799.708 -233.936L-794.518 -228.132L-789.318 -222.388L-784.109 -216.707L-778.889 -211.095L-773.657 -205.555L-768.413 -200.092L-763.157 -194.71L-757.887 -189.412L-752.604 -184.203L-747.305 -179.086L-741.992 -174.065L-736.663 -169.145L-731.318 -164.327L-725.955 -159.617L-720.576 -155.017L-715.178 -150.531L-709.763 -146.161L-704.328 -141.912L-698.874 -137.785L-693.4 -133.784L-687.906 -129.912L-682.391 -126.17L-676.855 -122.563L-671.298 -119.091L-665.719 -115.758L-660.118 -112.565L-654.494 -109.515L-648.848 -106.61L-643.179 -103.851L-637.486 -101.239L-631.77 -98.7769L-626.03 -96.4656L-620.267 -94.3062L-614.479 -92.2999L-608.667 -90.4477L-602.83 -88.7503L-596.969 -87.2085L-591.084 -85.8227L-585.173 -84.5935L-579.239 -83.521L-573.279 -82.6054L-567.295 -81.8467L-561.286 -81.2446L-555.252 -80.799L-549.194 -80.5093L-543.112 -80.375L-537.005 -80.3954L-530.874 -80.5695L-524.719 -80.8964L-518.54 -81.375L-512.337 -82.004L-506.111 -82.7818L-499.862 -83.7072L-493.589 -84.7783L-487.294 -85.9933L-480.977 -87.3503L-474.638 -88.8473L-468.277 -90.482L-461.894 -92.2521L-455.491 -94.1552L-449.067 -96.1888L-442.623 -98.3501L-436.16 -100.636L-429.677 -103.045L-423.176 -105.572L-416.656 -108.216L-410.118 -110.972L-403.564 -113.837L-396.992 -116.809L-390.405 -119.883L-383.801 -123.055L-377.183 -126.323L-370.551 -129.682L-363.905 -133.129L-357.245 -136.66L-350.573 -140.269L-343.889 -143.955L-337.194 -147.711L-330.489 -151.535L-323.773 -155.421L-317.049 -159.366L-310.316 -163.365L-303.575 -167.413L-296.827 -171.507L-290.072 -175.641L-283.312 -179.811L-276.547 -184.013L-269.778 -188.241L-263.005 -192.491L-256.229 -196.759L-249.452 -201.04L-242.673 -205.329L-235.894 -209.621L-229.115 -213.912L-222.336 -218.197L-215.56 -222.471L-208.786 -226.73L-202.015 -230.968L-195.248 -235.182L-188.486 -239.367L-181.729 -243.517L-174.978 -247.629L-168.233 -251.698L-161.497 -255.719L-154.768 -259.688L-148.049 -263.601L-141.339 -267.453L-134.639 -271.239L-127.95 -274.956L-121.273 -278.6L-114.608 -282.165L-107.956 -285.649L-101.317 -289.048L-94.6928 -292.356L-88.083 -295.571L-81.4885 -298.689L-74.9099 -301.706L-68.3478 -304.619L-61.8026 -307.423L-55.275 -310.116L-48.7654 -312.695L-42.2742 -315.156L-35.8022 -317.497L-29.3496 -319.713L-22.9169 -321.803L-16.5046 -323.764L-10.113 -325.593L-3.74255 -327.287L2.60628 -328.845L8.93328 -330.264L15.2381 -331.542L21.5204 -332.676L27.7798 -333.666L34.0162 -334.509L40.2292 -335.203L46.4186 -335.748L52.5843 -336.142L58.726 -336.383L64.8435 -336.471L70.9368 -336.405L77.0056 -336.184L83.0499 -335.807L89.0697 -335.273L95.0647 -334.584L101.035 -333.737L106.981 -332.733L112.902 -331.573L118.798 -330.256L124.67 -328.783L130.517 -327.154L136.34 -325.369L142.139 -323.431L147.913 -321.339L153.663 -319.094L159.39 -316.698L165.093 -314.152L170.772 -311.457L176.428 -308.616L182.062 -305.629L187.673 -302.499L193.262 -299.227L198.828 -295.816L204.373 -292.268L209.897 -288.585L215.4 -284.77L220.883 -280.826L226.346 -276.754L231.789 -272.558L237.213 -268.241L242.619 -263.805L248.006 -259.255L253.376 -254.592L258.728 -249.822L264.065 -244.946L269.385 -239.969L274.69 -234.894L279.98 -229.725L285.255 -224.466L290.518 -219.12L295.767 -213.692L301.004 -208.185L306.229 -202.604L311.443 -196.953L316.647 -191.236L321.841 -185.458L327.026 -179.623L332.202 -173.734L337.372 -167.797L342.534 -161.817L347.69 -155.797L352.84 -149.743L357.986 -143.658L363.128 -137.548L368.267 -131.417L373.403 -125.27L378.537 -119.111L383.67 -112.946L388.803 -106.778L393.936 -100.613L399.071 -94.4558L404.207 -88.3104L409.346 -82.1817L414.488 -76.0743L419.634 -69.9931L424.786 -63.9425L429.942 -57.9272L435.105 -51.9517L440.276 -46.0206L445.453 -40.1384L450.639 -34.3095L455.835 -28.5384L461.039 -22.8294L466.255 -17.1866L471.482 -11.6146L476.72 -6.11727L481.971 -0.698859L487.234 4.63665L492.512 9.88528L497.804 15.0431L503.11 20.1065L508.432 25.0715L513.77 29.9347L519.125 34.6925L524.497 39.3414L529.887 43.8781L535.294 48.2994L540.72 52.602L546.166 56.7832L551.631 60.8397L557.116 64.769L562.622 68.5682L568.148 72.2348L573.696 75.7664L579.266 79.1606L584.857 82.4153L590.471 85.5282L596.107 88.4975L601.766 91.3213L607.448 93.998L613.154 96.5259L618.883 98.9037L624.637 101.13L630.414 103.204L636.215 105.124L642.041 106.889L647.891 108.5L653.766 109.954L659.665 111.252L665.589 112.393L671.538 113.378L677.511 114.206L683.509 114.876L689.532 115.391L695.579 115.749L701.651 115.952L707.747 115.999L713.868 115.892L720.013 115.632L726.181 115.22L732.373 114.657L738.589 113.945L744.828 113.084L751.091 112.077L757.376 110.925L763.683 109.63L770.013 108.194L776.364 106.62L782.737 104.909L789.131 103.064L795.546 101.087L801.981 98.9819L808.436 96.7501L814.911 94.3951L821.404 91.9196L827.916 89.3268L834.446 86.6198L840.993 83.802L847.557 80.8767L854.138 77.8473L860.734 74.7176L867.346 71.491L873.972 68.1714L880.612 64.7626L887.266 61.2685L893.932 57.6932L900.611 54.0405L907.301 50.3147L914.002 46.5201L920.713 42.6608L927.434 38.7411L934.163 34.7654L940.901 30.7383L947.646 26.664L954.398 22.5472L961.156 18.3923L967.919 14.204L974.686 9.98689L981.457 5.74562L988.232 1.48477L995.009 -2.7909L1001.79 -7.07674L1008.57 -11.368L1015.35 -15.6601L1022.12 -19.9482L1028.9 -24.2276L1035.68 -28.4937L1042.45 -32.7417L1049.22 -36.967L1055.98 -41.165L1062.74 -45.331L1069.5 -49.4604L1076.24 -53.5488L1082.98 -57.5914L1089.71 -61.584L1096.44 -65.5219L1103.15 -69.4009L1109.86 -73.2167L1116.55 -76.9648L1123.23 -80.6412L1129.9 -84.2417L1136.56 -87.7621L1143.21 -91.1985L1149.84 -94.5469L1156.45 -97.8035L1163.05 -100.965L1169.64 -104.026L1176.21 -106.985L1182.76 -109.837L1189.3 -112.58L1195.82 -115.21L1202.31 -117.723L1208.8 -120.117L1215.26 -122.388L1221.7 -124.534L1228.12 -126.552L1234.52 -128.439L1240.9 -130.193L1247.26 -131.811L1253.59 -133.291L1259.91 -134.631L1266.2 -135.829L1272.47 -136.882L1278.72 -137.79L1284.94 -138.55L1291.14 -139.161L1297.32 -139.621L1303.47 -139.93L1309.6 -140.085L1315.7 -140.087L1321.78 -139.934L1327.84 -139.625L1333.87 -139.161L1339.87 -138.54L1345.85 -137.762L1351.81 -136.827L1357.74 -135.736L1363.65 -134.488L1369.53 -133.083L1375.39 -131.522L1381.22 -129.806L1387.03 -127.935L1392.82 -125.91L1398.58 -123.733L1404.32 -121.403L1410.03 -118.923L1415.72 -116.293L1421.38 -113.516L1427.03 -110.593L1432.65 -107.526L1438.25 -104.316L1443.82 -100.966L1449.38 -97.4779L1454.91 -93.8541L1460.42 -90.0967L1465.92 -86.2086L1471.39 -82.1923L1476.84 -78.0505L1482.27 -73.7863L1487.68 -69.4025L1493.08 -64.9022L1498.46 -60.2886L1503.82 -55.5652L1509.16 -50.7352L1514.49 -45.8022L1519.8 -40.7698L1525.1 -35.6416L1530.38 -30.4214L1535.65 -25.1132L1540.9 -19.7207L1546.14 -14.2481L1551.37 -8.69941L1556.59 -3.07874L1561.8 2.60962L1567 8.36143L1572.19 14.1724L1577.37 20.0381L1582.54 25.9541L1587.71 31.9159L1592.86 37.919L1598.02 43.9588L1603.16 50.0309L1608.31 56.1304L1613.45 62.2528L1618.59 68.3935L1623.72 74.5476L1628.85 80.7106L1633.99 86.8778L1639.12 93.0443L1644.25 99.2056L1649.39 105.357L1654.53 111.494L1659.67 117.611L1664.81 123.704L1669.96 129.769L1675.11 135.8L1680.28 141.794L1685.44 147.745L1690.62 153.649L1695.8 159.502L1700.99 165.299L1706.19 171.036L1711.4 176.708L1716.62 182.312L1721.86 187.843L1727.1 193.296L1732.36 198.669L1737.63 203.956L1742.92 209.154L1748.22 214.259L1753.53 219.268L1758.86 224.177L1764.21 228.981L1769.57 233.678L1774.96 238.265L1780.35 242.737L1785.77 247.092L1791.21 251.327L1796.67 255.439L1802.14 259.424L1807.64 263.281L1813.16 267.006L1818.69 270.598L1824.25 274.052L1829.84 277.369L1835.44 280.544L1841.07 283.577L1846.72 286.465L1852.39 289.206L1858.08 291.8L1863.8 294.244L1869.54 296.537L1875.31 298.678L1881.1 300.665L1886.92 302.499L1892.76 304.178L1898.62 305.7L1904.51 307.067L1910.42 308.278L1916.36 309.331L1922.32 310.228L1928.31 310.967L1934.32 311.551L1940.36 311.977L1946.42 312.248L1952.5 312.364L1958.61 312.325L1964.75 312.132L1970.91 311.787L1977.09 311.29L1983.29 310.643L1989.52 309.847L1995.77 308.904L2002.05 307.815L2008.35 306.583L2014.67 305.209L2021.01 303.695L2027.37 302.044L2033.76 300.258L2040.16 298.339L2046.59 296.289L2053.04 294.113L2059.5 291.812L2065.99 289.389L2072.49 286.847L2079.01 284.19L2085.55 281.42L2092.11 278.542L2098.68 275.558L2105.27 272.472L2111.88 269.287L2118.5 266.008L2125.13 262.638L2131.78 259.181L2138.44 255.641L2145.11 252.022L2151.8 248.328L2158.5 244.563L2165.2 240.731L2171.92 236.837L2178.64 232.886L2185.38 228.881L2192.12 224.827L2198.87 220.728L2205.62 216.589L2212.38 212.415L2219.15 208.21L2225.92 203.979L2232.69 199.726L2239.47 195.456L2246.25 191.174L2253.03 186.885L2259.81 182.593L2266.58 178.302L2273.36 174.018L2280.14 169.746L2286.91 165.489L2293.68 161.253L2300.45 157.043L2307.21 152.862L2313.97 148.716L2320.72 144.609L2327.46 140.546L2334.2 136.531L2340.92 132.568L2347.64 128.663L2354.35 124.819L2361.05 121.04L2367.74 117.332L2374.41 113.698L2381.08 110.142L2387.73 106.668L2394.36 103.28L2400.99 99.9827L2407.59 96.7793L2414.19 93.6734L2420.76 90.669L2427.32 87.7694L2433.87 84.978L2440.39 82.2984L2446.9 79.7337L2453.39 77.2871L2459.86 74.9616L2466.31 72.7601L2472.74 70.6856L2479.15 68.7407L2485.54 66.9279L2491.91 65.2498L2498.25 63.7087L2504.58 62.3069L2510.88 61.0464L2517.16 59.9293L2523.41 58.9574L2529.65 58.1323L2535.86 57.4558L2542.04 56.9292L2548.21 56.5538L2554.35 56.3309L2560.46 56.2614L2566.55 56.3464L2572.62 56.5865L2578.66 56.9824L2584.68 57.5346L2590.67 58.2434L2596.63 59.109L2602.58 60.1315L2608.5 61.3109L2614.39 62.6468L2620.26 64.1389L2626.1 65.7868L2631.92 67.5898L2637.72 69.5471L2643.49 71.6579L2649.24 73.9209L2654.96 76.3352L2660.66 78.8993L2666.34 81.6117L2671.99 84.4708L2677.62 87.4751L2683.23 90.6224L2688.82 93.911L2694.38 97.3387L2699.92 100.903L2705.44 104.602L2710.94 108.433L2716.42 112.393L2721.88 116.48L2727.33 120.691L2732.75 125.023L2738.15 129.472L2743.54 134.036L2748.9 138.712L2754.25 143.496L2759.59 148.384L2764.91 153.373L2770.21 158.459L2775.5 163.64L2780.77 168.91L2786.03 174.266L2791.28 179.703L2796.52 185.219L2801.74 190.809L2806.95 196.468L2812.15 202.192L2817.35 207.978L2822.53 213.82L2827.71 219.715L2832.88 225.657L2838.04 231.642L2843.19 237.667L2848.34 243.725L2853.49 249.813L2858.63 255.926L2863.77 262.059L2868.9 268.208L2874.04 274.368L2879.17 280.533" stroke="url(#paint1_linear)" stroke-width="4"/>
<defs>
<filter id="filter0_f" x="-341" y="-580" width="2068" height="1515" filterUnits="userSpaceOnUse" color-interpolation-filters="sRGB">
<feFlood flood-opacity="0" result="BackgroundImageFix"/>
<feBlend mode="normal" in="SourceGraphic" in2="BackgroundImageFix" result="shape"/>
<feGaussianBlur stdDeviation="100" result="effect1_foregroundBlur"/>
</filter>
<linearGradient id="paint0_linear" x1="-429.249" y1="-2906.17" x2="2756.75" y2="-2305.36" gradientUnits="userSpaceOnUse">
<stop stop-color="#B294FC"/>
<stop offset="1" stop-color="#86BDFE"/>
</linearGradient>
<linearGradient id="paint1_linear" x1="1039.12" y1="-186.068" x2="984.233" y2="162.601" gradientUnits="userSpaceOnUse">
<stop stop-color="#5D23E9"/>
<stop offset="1" stop-color="#6DA7F0"/>
</linearGradient>
</defs>
</svg>
