<svg width="243" height="165" viewBox="0 0 243 165" fill="none" xmlns="http://www.w3.org/2000/svg">
<path d="M125.391 130L122.126 128L118.86 130L119.614 126.25L116.85 123.75L120.618 123.5L122.126 120L123.633 123.5L127.401 123.75L124.638 126.25L125.391 130Z" fill="url(#paint0_linear)"/>
<path d="M137.952 129L135.188 127.5L132.676 129L133.43 126L131.169 124L134.184 123.75L135.188 121.25L136.444 123.75L139.459 124L137.198 126L137.952 129Z" fill="url(#paint1_linear)"/>
<path d="M110.821 129L108.309 127.5L105.797 129L106.551 126L104.29 124L107.304 123.75L108.309 121.25L109.565 123.75L112.328 124L110.319 126L110.821 129Z" fill="url(#paint2_linear)"/>
<path d="M146.744 127.75L144.986 126.75L143.227 127.75L143.729 125.75L141.971 124.25H144.232L144.986 122.25L145.99 124.25H148L146.493 125.75L146.744 127.75Z" fill="url(#paint3_linear)"/>
<path d="M100.773 127.75L99.0145 126.75L97.0048 127.75L97.5072 125.75L96 124.25H98.0097L99.0145 122.25L99.7681 124.25H102.029L100.271 125.75L100.773 127.75Z" fill="url(#paint4_linear)"/>
<mask id="mask0" style="mask-type:alpha" maskUnits="userSpaceOnUse" x="69" y="0" width="174" height="165">
<path d="M140.161 0.215805C139.864 0.337326 138.161 0.836914 136.377 1.35002C132.741 2.38971 131.727 2.75429 130.16 3.53743C127.592 4.83366 126.172 6.41345 125.402 8.8709L125.064 9.99159L123.483 10.9773C122.618 11.5309 121.009 12.5706 119.901 13.2862C118.482 14.2178 117.982 14.4879 118.184 14.2179C119.36 12.7056 120.482 10.6397 121.171 8.70886C121.604 7.45312 123.091 1.89012 122.983 1.89012C122.631 1.89012 118.049 4.82014 116.373 6.12988C115.143 7.07506 113.021 9.22195 112.143 10.3832C111.143 11.7199 110.183 13.5697 109.805 14.9335C109.399 16.3918 109.399 18.2281 109.818 19.4433L110.115 20.321L109.723 20.645C108.088 22.0358 105.709 24.2637 104.209 25.83L102.411 27.7068L103.074 26.4241C104.939 22.8189 105.534 18.7007 105.02 13.0972C104.885 11.6524 104.736 10.3967 104.696 10.3022C104.641 10.2076 104.114 10.7477 103.398 11.6524C97.3834 19.1057 96.2481 21.1986 95.748 25.722C95.4236 28.787 96.1535 32.9187 97.0455 33.0538C97.2212 33.0808 97.6808 32.7837 98.3025 32.2706L99.2892 31.4335L98.0863 33.0403C96.1129 35.6463 93.4368 39.7915 92.4366 41.7494C92.2474 42.1274 92.0717 42.3975 92.0311 42.3705C92.0041 42.33 92.0447 41.9789 92.1122 41.5738C92.3825 40.1831 92.4907 37.9282 92.3825 36.1458C92.2204 33.5399 91.9771 32.5677 89.9902 26.3296C89.5712 25.0333 89.1928 23.9126 89.1387 23.8586C89.0306 23.7371 88.8414 24.3177 87.2465 29.3001C84.719 37.226 84.246 40.3856 85.0975 43.8422C85.4759 45.3815 85.8949 46.3672 87.0167 48.3791L87.9899 50.1074L88.3818 49.6618C88.5981 49.4188 88.7333 49.3107 88.6927 49.4188C88.6522 49.5268 88.3818 50.2289 88.0845 50.985C87.3681 52.7404 86.5977 54.9953 85.9625 57.1152C85.6922 58.0468 85.4354 58.8975 85.3948 59.0055C85.3543 59.1135 85.1786 58.6004 85.0164 57.8578C84.273 54.6712 82.8268 51.2686 81.1103 48.6896C80.421 47.6364 79.4343 46.0972 78.9342 45.2735C78.0286 43.7612 77.5961 43.2211 77.4339 43.3832C77.3799 43.4372 77.2853 44.5849 77.2312 45.9351C77.1636 47.2989 77.0555 49.2567 76.9744 50.2964C76.7852 53.0509 76.8122 57.4797 77.042 59.1405C77.6637 63.7449 79.0694 66.3913 81.8672 68.2007C82.3267 68.4977 82.8403 68.7678 83.016 68.8083C83.3809 68.9028 83.3809 68.7948 83.1241 71.1307C82.8809 73.3856 82.6511 77.0043 82.6511 78.6516V79.8668L81.8942 78.4625C80.4345 75.7215 78.0016 72.1029 76.3662 70.253C75.5147 69.2944 71.0004 65.6217 70.6625 65.6217C70.5138 65.6217 70.4732 65.7162 70.5273 65.9188C70.703 66.7424 71.4734 70.6716 71.8519 72.7105C73.4197 81.2305 75.785 85.6593 80.3534 88.6569C81.3265 89.2915 83.016 90.2232 83.2863 90.2637C83.2999 90.2637 83.435 91.0873 83.5972 92.0865C83.9621 94.3819 84.5703 97.2985 85.0704 99.2563C85.2867 100.08 85.4219 100.701 85.3678 100.647C85.3137 100.58 84.9893 100.161 84.6514 99.7154C83.1377 97.717 81.9753 96.8124 74.0685 91.5194C72.0411 90.1692 69.0676 88.4273 69.027 88.5624C68.973 88.7244 74.0009 98.8782 75.1498 100.931C76.5554 103.415 77.3123 104.441 78.9342 106.062C80.5561 107.695 82.4483 109.046 84.1649 109.829C85.8138 110.571 87.9493 111.26 88.6386 111.26C89.0847 111.26 89.2739 111.314 89.2739 111.436C89.2739 111.935 93.1935 119.361 94.4775 121.319C94.6938 121.643 94.5721 121.576 93.8017 120.955C92.3555 119.807 90.6525 118.781 88.125 117.539C85.3948 116.202 83.9081 115.675 80.6372 114.838C79.2991 114.501 77.5421 113.987 76.7446 113.704C74.474 112.894 74.4334 113.056 76.3392 115.338C77.096 116.256 78.4341 117.917 79.3127 119.037C82.3267 122.913 87.1113 127.139 90.0173 128.489C91.2607 129.056 93.7206 129.799 95.4101 130.096C96.4508 130.285 97.1131 130.312 98.4106 130.244C99.3297 130.204 100.222 130.109 100.397 130.042C100.695 129.92 100.83 130.028 101.803 131.149C104.155 133.863 107.615 137.225 110.224 139.372C110.724 139.777 110.332 139.615 108.061 138.481C105.466 137.171 105.196 137.077 103.736 136.807C98.2079 135.78 85.8949 134.633 85.8949 135.132C85.8949 135.591 94.464 141.627 96.9374 142.896C99.3703 144.152 103.493 145.57 105.628 145.894C108.102 146.272 111.508 146.096 113.603 145.475C114.008 145.354 114.846 145.043 115.468 144.787C116.576 144.314 116.576 144.3 116.346 144.03C116.198 143.855 116.36 143.922 116.765 144.206C119.32 145.934 125.429 149.215 128.092 150.282C128.524 150.458 128.848 150.62 128.835 150.647C128.808 150.674 128.146 150.579 127.375 150.458C125.645 150.174 120.293 150.147 118.266 150.404C116.914 150.566 114.954 150.917 109.818 151.889C108.291 152.172 106.061 152.591 104.858 152.807C103.641 153.01 102.668 153.239 102.695 153.307C102.763 153.496 113.211 156.588 115.022 156.952C117.644 157.479 119.387 157.614 122.482 157.533C127.673 157.398 130.754 156.385 133.593 153.874L134.863 152.767L136.674 153.28C138.553 153.806 142.081 154.603 143.865 154.886L144.851 155.048L143.865 155.305C141.229 155.994 140.121 156.48 132.187 160.422C126.375 163.298 124.28 164.419 124.28 164.622C124.28 164.905 132.173 164.595 135.633 164.19C139.526 163.717 143.743 162.502 147.054 160.882C149.041 159.909 150.582 158.681 152.109 156.858L152.974 155.818H155.624H158.286L160.165 157.587C163.693 160.895 164.206 161.165 170.099 162.947C173.816 164.068 174.519 164.176 182.047 164.676C187.791 165.054 187.994 165.04 187.143 164.325C186.629 163.893 183.534 162.326 182.196 161.827C180.979 161.368 180.141 160.936 178.547 159.936C175.573 158.073 171.532 156.412 167.545 155.373L166.301 155.048L168.234 154.684C170.788 154.211 174.1 153.388 176.181 152.726C177.114 152.429 177.736 152.28 177.573 152.402C177.114 152.713 177.181 153.158 177.776 153.685C179.641 155.373 183.169 156.939 186.075 157.384C188.291 157.722 193.117 157.695 195.117 157.33C197.523 156.885 206.227 154.333 207.444 153.712C207.93 153.455 207.903 153.172 207.376 152.996C206.7 152.794 201.848 151.835 198.82 151.308C192.819 150.269 189.494 149.931 187.305 150.147C185.304 150.336 182.818 150.768 181.331 151.16C180.641 151.349 180.047 151.497 179.993 151.497C179.939 151.497 180.844 151.106 181.993 150.647C192.711 146.299 202.564 139.062 210.471 129.691C211.025 129.029 211.039 129.016 211.012 129.421C210.971 130.069 211.471 130.231 213.553 130.231C215.513 130.231 217.337 129.907 219.5 129.191C221.351 128.57 222.419 127.99 224.568 126.464C228.596 123.588 230.285 121.913 232.543 118.619C233.718 116.904 235.273 115.135 236.57 114.041C237.043 113.65 237.084 113.38 236.651 113.312C236.503 113.299 235.449 113.542 234.3 113.879C233.151 114.217 231.34 114.703 230.299 114.96C227.974 115.54 226.663 116.026 224.474 117.066C221.297 118.578 218.337 120.496 216.283 122.345C215.229 123.304 215.202 123.318 215.594 122.737C217.418 120.077 220.608 114.217 221.581 111.773C221.757 111.341 221.933 110.99 221.973 110.99C222.014 110.99 222.162 111.084 222.298 111.206C222.608 111.503 223.46 111.341 225.339 110.652C229.164 109.221 232.637 106.696 234.543 103.915C235.8 102.092 239.638 94.7735 241.314 90.9928C241.99 89.467 242.125 88.9809 241.882 88.9809C241.598 88.9809 235.611 92.7616 232.259 95.0705C229.137 97.2039 227.325 98.9052 225.852 101.066C225.501 101.579 225.203 102.024 225.19 102.038C225.163 102.065 225.366 101.336 225.609 100.418C226.379 97.6225 227.244 93.4368 227.609 90.7228C227.677 90.1422 227.704 90.1152 228.055 90.1692C228.312 90.1962 228.772 90.0341 229.474 89.6831C232.962 87.8737 235.165 85.6323 236.908 82.1622C238.273 79.4212 238.936 77.0988 239.963 71.4953C240.341 69.4834 240.774 67.431 240.922 66.9314C241.22 65.9728 241.233 65.4732 240.977 65.3922C240.72 65.3111 239.395 66.4994 236.868 69.0783C231.934 74.1012 230.056 76.6667 228.745 80.1908L228.366 81.217L228.353 79.3942C228.353 76.4507 227.88 70.1315 227.582 68.8623L227.501 68.5247L227.826 68.8218C228.123 69.0783 228.19 69.0918 228.65 68.9433C229.366 68.6868 230.38 67.9036 231.367 66.8234C234.002 64.0014 235.124 58.911 234.732 51.6872C234.57 48.6221 234.178 43.5317 234.083 43.2211C233.962 42.816 229.353 50.553 227.947 53.4965C226.758 56.035 226.609 56.7776 226.582 60.3557L226.569 62.8537L226.244 61.571C225.663 59.2215 225.095 57.2232 224.474 55.3058C223.811 53.2399 222.068 48.7301 221.446 47.5014C220.784 46.1917 221.014 46.4347 221.865 47.9605C222.771 49.5673 223.054 49.8238 223.555 49.4998C224.784 48.6896 226.731 43.8692 226.961 41.0877C227.001 40.5476 226.961 39.643 226.879 39.0624C226.501 36.6589 225.244 31.9871 223.865 27.9093C223 25.3304 222.852 24.9793 222.595 24.9793C222.176 24.9793 220.27 29.5701 219.757 31.8656C219.283 33.9179 219.283 42.303 219.757 43.5722C219.865 43.8963 219.932 44.1528 219.905 44.1528C219.878 44.1528 219.513 43.5047 219.094 42.708C216.58 38.0227 213.418 33.3913 209.741 29.0435C208.146 27.1532 203.767 22.7379 202.01 21.2661C200.861 20.294 200.78 20.1859 201.064 20.1184C201.618 19.9834 201.78 19.4028 201.834 17.499C201.916 15.055 201.672 14.0288 200.632 12.3275C199.402 10.3022 196.158 6.87253 193.887 5.18472C192.427 4.09102 189.332 2.16017 189.062 2.16017C188.751 2.16017 188.859 3.07834 189.427 5.22522C190.724 10.2211 191.535 11.9224 193.995 14.8255C194.698 15.6491 194.725 15.7031 194.293 15.4196C193.225 14.731 192.333 14.2179 189.562 12.7056L186.656 11.1258L186.548 10.2887C186.197 7.42613 183.845 4.68513 180.358 3.05135C179.155 2.48424 171.991 0.242828 170.775 0.0537872C170.315 -0.0272217 170.234 -0.000213623 170.234 0.202316C170.234 0.823425 173.911 5.57628 176.114 7.77719C178.182 9.87007 180.304 11.0313 183.155 11.6794L184.561 11.99L187.589 14.0693C189.251 15.2035 190.603 16.1487 190.576 16.1757C190.562 16.1892 190.251 16.1487 189.886 16.0677C188.467 15.7841 185.913 15.7436 184.372 16.0002C181.763 16.4053 176.844 17.796 175.141 18.5927C173.397 19.4298 173.897 19.6323 179.033 20.1859C180.777 20.3615 182.926 20.618 183.818 20.7395C187.332 21.1986 194.59 21.1176 196.117 20.5775C196.766 20.3615 196.712 20.321 199.266 22.4679C201.524 24.3447 202.253 25.0198 201.929 24.9118C198.996 23.8721 194.644 23.386 190.427 23.6291C188.116 23.7506 187.399 23.9126 187.399 24.3042C187.399 24.6013 187.71 24.8038 189.089 25.3844C189.684 25.6274 191.846 26.6131 193.887 27.5583C200.402 30.5558 202.727 31.2579 207.092 31.5415L208.498 31.636L209.011 32.2571C210.377 33.9179 213.35 37.9417 213.35 38.1442C213.35 38.1847 213.066 38.0092 212.715 37.7526C211.688 37.0235 209.349 35.8353 207.66 35.2007C203.429 33.5939 198.618 32.5002 198.618 33.1348C198.618 33.2428 199.239 33.8774 200.01 34.539C202.172 36.4159 208.484 41.6143 209.66 42.4785C212.336 44.4634 216.161 46.6643 217.662 47.0693L218.527 47.3124L219 48.3386C220.149 50.8635 222.041 55.8729 221.689 55.4949C219.892 53.5505 219.338 52.9834 218.446 52.1733C217.878 51.6332 216.905 50.8635 216.283 50.4584C213.418 48.5411 207.917 45.7596 207.592 46.0701C207.457 46.2187 207.917 46.9208 208.971 48.136C210.971 50.4584 212.661 52.8889 214.269 55.7649C214.756 56.6156 215.54 57.8308 216.026 58.4519C217.864 60.8148 221.473 64.0959 223.555 65.3111C224.041 65.5947 224.46 65.9188 224.501 66.0268C224.636 66.4724 225.258 71.1037 225.447 73.1831C225.636 75.2219 225.704 77.4093 225.555 76.7612C225.095 74.6683 223.703 71.6168 222.554 70.172C221.473 68.8218 213.945 61.2064 213.81 61.3279C213.593 61.5575 216.715 71.4683 218.081 74.8709C219.757 79.0566 222.108 82.8913 224.636 85.5918L225.474 86.483L225.366 87.5632C225.068 90.4527 224.42 94.4899 223.933 96.5423C223.879 96.7584 223.784 96.3803 223.676 95.4756C223.284 92.3296 222.5 90.2907 219.919 85.8214C217.526 81.6491 215.891 79.2052 215.594 79.2997C215.35 79.3807 215.35 80.5959 215.58 84.4576C215.918 90.2502 216.31 95.003 216.607 97.0149C216.999 99.5939 218.756 103.82 220.284 105.832L220.919 106.696L220.162 108.532C219 111.355 215.54 118.254 215.972 116.904C216.013 116.769 216.121 115.986 216.202 115.162C216.432 113.002 216.283 108.911 215.918 106.939C214.837 101.066 213.377 97.0014 212.634 97.744C212.553 97.8251 212.417 98.5812 212.323 99.4453C212.147 100.944 211.877 102.254 210.458 108.465C209.498 112.678 209.268 114.177 209.201 116.701C209.12 119.429 209.309 120.752 210.201 123.318L210.782 125.059L210.079 125.951C209.16 127.125 206.835 129.853 205.808 130.974L204.997 131.851L205.322 130.433C205.97 127.598 206.119 125.937 206.092 121.724C206.092 119.55 205.997 116.999 205.903 115.986L205.714 114.163L204.416 116.661C202.551 120.239 201.159 122.737 200.158 124.249C197.415 128.449 196.807 130.636 196.509 137.414L196.415 139.467L194.455 140.844C192.495 142.221 188.859 144.503 188.778 144.409C188.751 144.382 188.94 144.071 189.197 143.706C190.711 141.586 192.319 137.873 193.144 134.633C193.495 133.188 194.198 129.151 194.13 128.921C194.063 128.719 186.859 135.686 184.804 137.941C180.641 142.518 179.357 144.706 178.83 148.108L178.668 149.121L176.708 149.769C175.005 150.323 170.64 151.538 170.64 151.443C170.64 151.43 171.072 151.052 171.613 150.62C173.856 148.743 176.816 144.895 178.128 142.113C178.519 141.289 179.101 139.386 178.993 139.278C178.966 139.251 178.128 139.629 177.127 140.115C175.168 141.046 173.829 141.6 170.842 142.721C167.085 144.111 165.409 145.192 163.382 147.487C161.503 149.593 160.273 151.686 160.408 152.51L160.476 152.942L159.665 153.037C159.205 153.077 157.218 153.118 155.232 153.118C152.501 153.118 151.582 153.077 151.488 152.942C151.42 152.861 151.096 152.159 150.785 151.389C149.785 149.013 148.676 147.433 147.109 146.15C145.284 144.665 143.702 143.868 139.012 142.1C137.715 141.614 135.688 140.736 134.525 140.155C133.349 139.575 132.39 139.143 132.39 139.21C132.39 139.548 133.038 141.316 133.498 142.248C134.877 144.962 138.458 149.377 140.661 151.065C141.026 151.335 141.27 151.578 141.202 151.605C140.932 151.686 135.201 150.134 133.268 149.431L132.728 149.242L132.633 148.257C132.322 145.205 131.092 142.896 127.983 139.48C126.402 137.738 117.495 128.665 117.428 128.719C117.306 128.854 117.955 132.418 118.455 134.39C119.631 138.967 120.793 141.708 122.699 144.327L123.226 145.043L122.577 144.665C118.712 142.437 115.008 139.926 115.035 139.534C115.049 139.386 115.13 138.751 115.238 138.089C115.765 134.579 114.062 128.516 111.237 123.952C109.872 121.738 108.642 119.564 107.304 116.985C106.588 115.621 105.966 114.501 105.912 114.501C105.763 114.501 105.628 118.376 105.628 122.467C105.628 128.138 105.898 130.312 106.858 132.243L107.264 133.066L106.574 132.391C105.52 131.379 102.83 128.354 101.6 126.815L100.519 125.465L100.911 124.681C101.627 123.21 102.209 120.347 102.344 117.674C102.452 115.257 101.992 112.084 100.762 106.804C99.6 101.862 99.0053 98.8377 99.0053 97.9061C99.0053 97.312 98.8161 96.9474 98.5999 97.1634C98.3296 97.4335 97.4105 99.7154 96.9915 101.187C96.5049 102.915 95.7615 106.291 95.329 108.762C94.91 111.233 94.9235 113.528 95.3966 116.134C95.5993 117.228 95.7886 118.227 95.8426 118.362C96.0048 118.889 94.5045 116.256 93.4638 114.217C92.315 111.949 91.5851 110.369 90.6931 108.154L90.1119 106.75L90.5714 106.399C92.0717 105.278 94.2477 100.863 94.7478 97.9196C95.356 94.3549 96.3697 80.0828 96.0318 79.7453C95.6669 79.3807 93.7341 82.0812 91.4229 86.2129C88.8008 90.9118 87.9899 93.4232 87.8007 97.42L87.7196 99.3103L87.4087 98.0276C86.7059 95.1516 86.0436 91.3979 85.7597 88.7109C85.6787 87.9277 85.584 87.1176 85.557 86.9016C85.5029 86.564 85.5165 86.537 85.6922 86.6855C85.9895 86.9286 86.2869 86.618 88.125 84.1876C90.1119 81.5411 91.8419 78.9621 92.3825 77.8279C92.788 76.9638 94.2207 73.1156 94.5181 72.1029C94.5856 71.8463 94.91 70.8471 95.2074 69.8885C96.0183 67.3635 97.3429 62.9482 97.4916 62.2731C97.5727 61.9625 97.5727 61.706 97.5186 61.706C97.1807 61.706 91.1931 67.5661 89.7875 69.2674C87.7331 71.7518 86.3139 74.7494 85.557 78.2195C85.4219 78.8001 85.3002 79.2457 85.2732 79.2187C85.1786 79.1376 85.4894 73.7232 85.6787 71.9003C86.0301 68.5922 86.4626 66.0268 86.6653 66.0268C87.0032 66.0268 87.8682 65.5137 89.2198 64.501C92.5447 62.0165 94.883 59.3296 99.0729 53.1319C100.168 51.4981 101.763 49.2432 102.614 48.1225C103.452 47.0018 104.141 45.9891 104.141 45.8676C104.141 45.5706 103.709 45.7191 102.019 46.5697C98.8972 48.136 94.2883 50.9985 92.7204 52.3353C91.7338 53.1859 90.2605 54.8602 89.3009 56.224C88.9901 56.6696 88.7333 56.9936 88.7333 56.9531C88.7333 56.521 90.7742 51.1066 91.7878 48.7976L92.3961 47.4474L93.18 47.2854C94.6127 46.9883 97.8835 45.2465 101.033 43.1131C103.249 41.6008 104.641 40.5206 106.777 38.6168C107.75 37.7526 109.332 36.4159 110.291 35.6192C112.4 33.9044 112.819 33.4994 112.765 33.2293C112.697 32.8918 111.386 32.9863 109.345 33.4724C104.979 34.512 101.398 36.0648 98.4106 38.1982C97.8295 38.6168 97.2212 39.0489 97.0726 39.1569C96.4914 39.5755 100.735 33.5939 102.168 32.0006C102.519 31.609 102.547 31.5955 103.817 31.5955C107.331 31.5955 111.278 30.5558 115.698 28.463C116.968 27.8688 119.266 26.8156 120.82 26.1135C122.361 25.4249 123.726 24.7768 123.821 24.6958C124.145 24.4257 124.037 24.0746 123.577 23.8991C122.374 23.4805 115.981 23.5076 113.197 23.9531C111.913 24.1557 109.98 24.6688 109.034 25.0468L108.534 25.2494L109.21 24.6418C110.156 23.7776 112.697 21.6442 113.67 20.9016L114.481 20.267L115.562 20.5775C118.225 21.3472 122.091 21.3742 127.862 20.6585C132.363 20.1049 134.823 19.8484 135.755 19.8349C136.607 19.8349 137.404 19.6053 137.499 19.3353C137.62 18.9302 133.052 17.2019 130.146 16.5538C129.335 16.3647 128.078 16.1487 127.348 16.0542C125.672 15.8517 121.699 15.9732 120.563 16.2567C120.117 16.3648 119.739 16.4323 119.725 16.4188C119.712 16.4053 120.104 16.0812 120.604 15.7031C121.104 15.3251 122.442 14.3124 123.591 13.4482C124.726 12.5841 125.713 11.9224 125.78 11.963C125.861 12.0034 126.551 11.9765 127.321 11.8819C130.497 11.5444 132.836 10.2346 136.107 6.95354C139.472 3.57791 141.675 0.526382 141.026 0.121307C140.797 -0.0272217 140.824 -0.0272369 140.161 0.215805Z" fill="black"/>
<path d="M206.524 11.6117C206.551 12.6108 206.619 14.7712 206.66 16.405C206.754 20.0237 206.943 22.1301 207.281 23.4668C207.606 24.736 208.538 26.7209 209.525 28.2062C210.647 29.9075 213.904 33.0806 214.526 33.0806C215.553 33.0806 216.202 26.8829 215.499 23.6964C214.945 21.1444 213.634 18.6194 211.35 15.6624C210.485 14.5552 207.592 11.0581 206.822 10.2074L206.443 9.78883L206.524 11.6117Z" fill="black"/>
<path d="M221.73 135.254C213.337 135.848 210.809 136.158 207.795 136.915C203.916 137.887 200.861 139.44 197.415 142.154C196.117 143.18 195.685 143.895 195.982 144.476C196.496 145.462 200.726 146.38 203.808 146.177C206.43 145.988 209.998 145.043 212.62 143.814C215.634 142.397 224.92 136.348 225.203 135.605C225.244 135.497 225.203 135.348 225.095 135.281C224.92 135.173 223.081 135.159 221.73 135.254Z" fill="black"/>
</mask>
<g mask="url(#mask0)">
<rect x="152.731" y="-11.082" width="99.7388" height="191.474" fill="url(#paint5_linear)"/>
</g>
<mask id="mask1" style="mask-type:alpha" maskUnits="userSpaceOnUse" x="0" y="0" width="174" height="165">
<path d="M101.842 0.215805C102.14 0.337326 103.843 0.836914 105.627 1.35002C109.263 2.38971 110.276 2.75429 111.844 3.53743C114.412 4.83366 115.831 6.41345 116.602 8.8709L116.94 9.99159L118.521 10.9773C119.386 11.5309 120.994 12.5706 122.103 13.2862C123.522 14.2178 124.022 14.4879 123.819 14.2179C122.643 12.7056 121.522 10.6397 120.832 8.70886C120.4 7.45312 118.913 1.89012 119.021 1.89012C119.373 1.89012 123.954 4.82014 125.63 6.12988C126.86 7.07506 128.982 9.22195 129.861 10.3832C130.861 11.7199 131.821 13.5697 132.199 14.9335C132.605 16.3918 132.605 18.2281 132.186 19.4433L131.888 20.321L132.28 20.645C133.916 22.0358 136.294 24.2637 137.795 25.83L139.592 27.7068L138.93 26.4241C137.065 22.8189 136.47 18.7007 136.984 13.0972C137.119 11.6524 137.268 10.3967 137.308 10.3022C137.362 10.2076 137.889 10.7477 138.606 11.6524C144.62 19.1057 145.756 21.1986 146.256 25.722C146.58 28.787 145.85 32.9187 144.958 33.0538C144.782 33.0808 144.323 32.7837 143.701 32.2706L142.715 31.4335L143.917 33.0403C145.891 35.6463 148.567 39.7915 149.567 41.7494C149.756 42.1274 149.932 42.3975 149.973 42.3705C150 42.33 149.959 41.9789 149.891 41.5738C149.621 40.1831 149.513 37.9282 149.621 36.1458C149.783 33.5399 150.027 32.5677 152.013 26.3296C152.432 25.0333 152.811 23.9126 152.865 23.8586C152.973 23.7371 153.162 24.3177 154.757 29.3001C157.285 37.226 157.758 40.3856 156.906 43.8422C156.528 45.3815 156.109 46.3672 154.987 48.3791L154.014 50.1074L153.622 49.6618C153.406 49.4188 153.27 49.3107 153.311 49.4188C153.352 49.5268 153.622 50.2289 153.919 50.985C154.636 52.7404 155.406 54.9953 156.041 57.1152C156.312 58.0468 156.568 58.8975 156.609 59.0055C156.649 59.1135 156.825 58.6004 156.987 57.8578C157.731 54.6712 159.177 51.2686 160.893 48.6896C161.583 47.6364 162.569 46.0972 163.07 45.2735C163.975 43.7612 164.408 43.2211 164.57 43.3832C164.624 43.4372 164.718 44.5849 164.773 45.9351C164.84 47.2989 164.948 49.2567 165.029 50.2964C165.219 53.0509 165.192 57.4797 164.962 59.1405C164.34 63.7449 162.934 66.3913 160.137 68.2007C159.677 68.4977 159.163 68.7678 158.988 68.8083C158.623 68.9028 158.623 68.7948 158.88 71.1307C159.123 73.3856 159.353 77.0043 159.353 78.6516V79.8668L160.11 78.4625C161.569 75.7215 164.002 72.1029 165.638 70.253C166.489 69.2944 171.003 65.6217 171.341 65.6217C171.49 65.6217 171.53 65.7162 171.476 65.9188C171.301 66.7424 170.53 70.6716 170.152 72.7105C168.584 81.2305 166.219 85.6593 161.65 88.6569C160.677 89.2915 158.988 90.2232 158.717 90.2637C158.704 90.2637 158.569 91.0873 158.407 92.0865C158.042 94.3819 157.433 97.2985 156.933 99.2563C156.717 100.08 156.582 100.701 156.636 100.647C156.69 100.58 157.014 100.161 157.352 99.7154C158.866 97.717 160.028 96.8124 167.935 91.5194C169.963 90.1692 172.936 88.4273 172.977 88.5624C173.031 88.7244 168.003 98.8782 166.854 100.931C165.448 103.415 164.691 104.441 163.07 106.062C161.448 107.695 159.555 109.046 157.839 109.829C156.19 110.571 154.054 111.26 153.365 111.26C152.919 111.26 152.73 111.314 152.73 111.436C152.73 111.935 148.81 119.361 147.526 121.319C147.31 121.643 147.432 121.576 148.202 120.955C149.648 119.807 151.351 118.781 153.879 117.539C156.609 116.202 158.096 115.675 161.367 114.838C162.705 114.501 164.462 113.987 165.259 113.704C167.53 112.894 167.57 113.056 165.665 115.338C164.908 116.256 163.57 117.917 162.691 119.037C159.677 122.913 154.892 127.139 151.986 128.489C150.743 129.056 148.283 129.799 146.594 130.096C145.553 130.285 144.891 130.312 143.593 130.244C142.674 130.204 141.782 130.109 141.606 130.042C141.309 129.92 141.174 130.028 140.201 131.149C137.849 133.863 134.389 137.225 131.78 139.372C131.28 139.777 131.672 139.615 133.943 138.481C136.538 137.171 136.808 137.077 138.268 136.807C143.796 135.78 156.109 134.633 156.109 135.132C156.109 135.591 147.54 141.627 145.066 142.896C142.633 144.152 138.511 145.57 136.376 145.894C133.902 146.272 130.496 146.096 128.401 145.475C127.996 145.354 127.158 145.043 126.536 144.787C125.428 144.314 125.428 144.3 125.657 144.03C125.806 143.855 125.644 143.922 125.238 144.206C122.684 145.934 116.575 149.215 113.912 150.282C113.48 150.458 113.155 150.62 113.169 150.647C113.196 150.674 113.858 150.579 114.628 150.458C116.358 150.174 121.711 150.147 123.738 150.404C125.09 150.566 127.05 150.917 132.186 151.889C133.713 152.172 135.943 152.591 137.146 152.807C138.362 153.01 139.336 153.239 139.309 153.307C139.241 153.496 128.793 156.588 126.982 156.952C124.36 157.479 122.616 157.614 119.521 157.533C114.331 157.398 111.249 156.385 108.411 153.874L107.141 152.767L105.33 153.28C103.451 153.806 99.9231 154.603 98.139 154.886L97.1524 155.048L98.139 155.305C100.775 155.994 101.883 156.48 109.817 160.422C115.629 163.298 117.724 164.419 117.724 164.622C117.724 164.905 109.83 164.595 106.37 164.19C102.478 163.717 98.2607 162.502 94.9493 160.882C92.9624 159.909 91.4216 158.681 89.8943 156.858L89.0293 155.818H86.3802H83.7176L81.8388 157.587C78.3112 160.895 77.7976 161.165 71.9046 162.947C68.1878 164.068 67.4849 164.176 59.9566 164.676C54.2123 165.054 54.0096 165.04 54.8611 164.325C55.3747 163.893 58.4698 162.326 59.8079 161.827C61.0243 161.368 61.8623 160.936 63.4572 159.936C66.4307 158.073 70.472 156.412 74.4592 155.373L75.7026 155.048L73.7698 154.684C71.2153 154.211 67.9039 153.388 65.8225 152.726C64.8899 152.429 64.2682 152.28 64.4304 152.402C64.8899 152.713 64.8223 153.158 64.2276 153.685C62.3624 155.373 58.8348 156.939 55.9288 157.384C53.7122 157.722 48.887 157.695 46.8867 157.33C44.4809 156.885 35.7766 154.333 34.5602 153.712C34.0736 153.455 34.1006 153.172 34.6277 152.996C35.3035 152.794 40.1558 151.835 43.1833 151.308C49.1844 150.269 52.5093 149.931 54.6989 150.147C56.6992 150.336 59.1862 150.768 60.6729 151.16C61.3622 151.349 61.9569 151.497 62.011 151.497C62.0651 151.497 61.1595 151.106 60.0106 150.647C49.2925 146.299 39.4394 139.062 31.5326 129.691C30.9785 129.029 30.9649 129.016 30.992 129.421C31.0325 130.069 30.5324 130.231 28.451 130.231C26.4912 130.231 24.6665 129.907 22.504 129.191C20.6523 128.57 19.5845 127.99 17.4355 126.464C13.4078 123.588 11.7183 121.913 9.46111 118.619C8.28523 116.904 6.7309 115.135 5.43336 114.041C4.96031 113.65 4.91977 113.38 5.35228 113.312C5.50096 113.299 6.55519 113.542 7.70404 113.879C8.85289 114.217 10.664 114.703 11.7048 114.96C14.0295 115.54 15.3405 116.026 17.5301 117.066C20.7064 118.578 23.6663 120.496 25.7207 122.345C26.775 123.304 26.802 123.318 26.4101 122.737C24.5854 120.077 21.3957 114.217 20.4225 111.773C20.2468 111.341 20.0711 110.99 20.0306 110.99C19.99 110.99 19.8413 111.084 19.7062 111.206C19.3953 111.503 18.5438 111.341 16.6651 110.652C12.8401 109.221 9.3665 106.696 7.46075 103.915C6.20378 102.092 2.36525 94.7735 0.68927 90.9928C0.0134735 89.467 -0.121674 88.9809 0.121613 88.9809C0.405441 88.9809 6.39301 92.7616 9.74495 95.0705C12.8671 97.2039 14.6783 98.9052 16.1515 101.066C16.5029 101.579 16.8003 102.024 16.8138 102.038C16.8408 102.065 16.6381 101.336 16.3948 100.418C15.6244 97.6225 14.7593 93.4368 14.3944 90.7228C14.3268 90.1422 14.2998 90.1152 13.9484 90.1692C13.6916 90.1962 13.2321 90.0341 12.5292 89.6831C9.04211 87.8737 6.83904 85.6323 5.09547 82.1622C3.73036 79.4212 3.06807 77.0988 2.04086 71.4953C1.66241 69.4834 1.22992 67.431 1.08125 66.9314C0.78389 65.9728 0.77037 65.4732 1.02718 65.3922C1.28398 65.3111 2.60855 66.4994 5.13602 69.0783C10.0693 74.1012 11.948 76.6667 13.2591 80.1908L13.6375 81.217L13.651 79.3942C13.651 76.4507 14.1241 70.1315 14.4214 68.8623L14.5025 68.5247L14.1782 68.8218C13.8808 69.0783 13.8132 69.0918 13.3537 68.9433C12.6374 68.6868 11.6237 67.9036 10.637 66.8234C8.00139 64.0014 6.87958 58.911 7.27153 51.6872C7.43373 48.6221 7.82568 43.5317 7.9203 43.2211C8.04195 42.816 12.6509 50.553 14.0565 53.4965C15.2459 56.035 15.3946 56.7776 15.4216 60.3557L15.4352 62.8537L15.7595 61.571C16.3407 59.2215 16.9084 57.2232 17.5301 55.3058C18.1924 53.2399 19.9359 48.7301 20.5577 47.5014C21.22 46.1917 20.9902 46.4347 20.1387 47.9605C19.2331 49.5673 18.9493 49.8238 18.4492 49.4998C17.2193 48.6896 15.273 43.8692 15.0432 41.0877C15.0026 40.5476 15.0432 39.643 15.1243 39.0624C15.5027 36.6589 16.7597 31.9871 18.1383 27.9093C19.0033 25.3304 19.152 24.9793 19.4088 24.9793C19.8278 24.9793 21.7336 29.5701 22.2472 31.8656C22.7202 33.9179 22.7202 42.303 22.2472 43.5722C22.139 43.8963 22.0715 44.1528 22.0985 44.1528C22.1255 44.1528 22.4904 43.5047 22.9094 42.708C25.4234 38.0227 28.5861 33.3913 32.2625 29.0435C33.8573 27.1532 38.2365 22.7379 39.9936 21.2661C41.1424 20.294 41.2235 20.1859 40.9397 20.1184C40.3855 19.9834 40.2233 19.4028 40.1693 17.499C40.0882 15.055 40.3315 14.0288 41.3722 12.3275C42.6021 10.3022 45.846 6.87253 48.1166 5.18472C49.5763 4.09102 52.6715 2.16017 52.9418 2.16017C53.2527 2.16017 53.1446 3.07834 52.5769 5.22522C51.2794 10.2211 50.4684 11.9224 48.0085 14.8255C47.3057 15.6491 47.2786 15.7031 47.7112 15.4196C48.7789 14.731 49.671 14.2179 52.4417 12.7056L55.3476 11.1258L55.4558 10.2887C55.8072 7.42613 58.159 4.68513 61.6461 3.05135C62.849 2.48424 70.0124 0.242828 71.2289 0.0537872C71.6884 -0.0272217 71.7695 -0.000213623 71.7695 0.202316C71.7695 0.823425 68.0932 5.57628 65.8901 7.77719C63.8221 9.87007 61.7001 11.0313 58.8483 11.6794L57.4426 11.99L54.4151 14.0693C52.7526 15.2035 51.401 16.1487 51.428 16.1757C51.4416 16.1892 51.7524 16.1487 52.1173 16.0677C53.5365 15.7841 56.091 15.7436 57.6318 16.0002C60.2404 16.4053 65.1602 17.796 66.8632 18.5927C68.6068 19.4298 68.1067 19.6323 62.9706 20.1859C61.2271 20.3615 59.078 20.618 58.186 20.7395C54.6719 21.1986 47.4138 21.1176 45.8865 20.5775C45.2377 20.3615 45.2918 20.321 42.7373 22.4679C40.4801 24.3447 39.7503 25.0198 40.0747 24.9118C43.0076 23.8721 47.3597 23.386 51.5767 23.6291C53.8879 23.7506 54.6043 23.9126 54.6043 24.3042C54.6043 24.6013 54.2934 24.8038 52.9148 25.3844C52.3201 25.6274 50.1575 26.6131 48.1166 27.5583C41.602 30.5558 39.2772 31.2579 34.9116 31.5415L33.5059 31.636L32.9923 32.2571C31.6272 33.9179 28.6537 37.9417 28.6537 38.1442C28.6537 38.1847 28.9375 38.0092 29.289 37.7526C30.3162 37.0235 32.6544 35.8353 34.3439 35.2007C38.5744 33.5939 43.3861 32.5002 43.3861 33.1348C43.3861 33.2428 42.7643 33.8774 41.9939 34.539C39.8314 36.4159 33.5194 41.6143 32.3436 42.4785C29.6674 44.4634 25.8424 46.6643 24.3421 47.0693L23.4771 47.3124L23.0041 48.3386C21.8552 50.8635 19.963 55.8729 20.3144 55.4949C22.112 53.5505 22.6662 52.9834 23.5582 52.1733C24.1259 51.6332 25.099 50.8635 25.7207 50.4584C28.5861 48.5411 34.0871 45.7596 34.4115 46.0701C34.5466 46.2187 34.0871 46.9208 33.0329 48.136C31.0325 50.4584 29.343 52.8889 27.7346 55.7649C27.2481 56.6156 26.4641 57.8308 25.9776 58.4519C24.1394 60.8148 20.5307 64.0959 18.4492 65.3111C17.9626 65.5947 17.5436 65.9188 17.5031 66.0268C17.3679 66.4724 16.7462 71.1037 16.557 73.1831C16.3677 75.2219 16.3002 77.4093 16.4488 76.7612C16.9084 74.6683 18.3005 71.6168 19.4494 70.172C20.5306 68.8218 28.059 61.2064 28.1942 61.3279C28.4104 61.5575 25.2882 71.4683 23.9231 74.8709C22.2472 79.0566 19.8954 82.8913 17.3679 85.5918L16.5299 86.483L16.6381 87.5632C16.9354 90.4527 17.5842 94.4899 18.0708 96.5423C18.1248 96.7584 18.2194 96.3803 18.3275 95.4756C18.7195 92.3296 19.5034 90.2907 22.085 85.8214C24.4773 81.6491 26.1127 79.2052 26.4101 79.2997C26.6534 79.3807 26.6534 80.5959 26.4236 84.4576C26.0857 90.2502 25.6937 95.003 25.3964 97.0149C25.0044 99.5939 23.2473 103.82 21.72 105.832L21.0848 106.696L21.8417 108.532C23.0041 111.355 26.4641 118.254 26.0316 116.904C25.9911 116.769 25.8829 115.986 25.8019 115.162C25.5721 113.002 25.7208 108.911 26.0857 106.939C27.167 101.066 28.6267 97.0014 29.3701 97.744C29.4512 97.8251 29.5863 98.5812 29.6809 99.4453C29.8566 100.944 30.127 102.254 31.5461 108.465C32.5058 112.678 32.7355 114.177 32.8031 116.701C32.8842 119.429 32.695 120.752 31.8029 123.318L31.2217 125.059L31.9246 125.951C32.8436 127.125 35.1684 129.853 36.1956 130.974L37.0065 131.851L36.6822 130.433C36.0334 127.598 35.8847 125.937 35.9118 121.724C35.9118 119.55 36.0064 116.999 36.101 115.986L36.2902 114.163L37.5877 116.661C39.4529 120.239 40.8451 122.737 41.8452 124.249C44.589 128.449 45.1972 130.636 45.4945 137.414L45.5892 139.467L47.549 140.844C49.5088 142.221 53.1446 144.503 53.2257 144.409C53.2527 144.382 53.0635 144.071 52.8067 143.706C51.2929 141.586 49.6845 137.873 48.86 134.633C48.5086 133.188 47.8058 129.151 47.8733 128.921C47.9409 128.719 55.1449 135.686 57.1993 137.941C61.3622 142.518 62.6462 144.706 63.1734 148.108L63.3356 149.121L65.2954 149.769C66.9984 150.323 71.364 151.538 71.364 151.443C71.364 151.43 70.9315 151.052 70.3909 150.62C68.1472 148.743 65.1872 144.895 63.8762 142.113C63.4842 141.289 62.903 139.386 63.0112 139.278C63.0382 139.251 63.8762 139.629 64.8764 140.115C66.8362 141.046 68.1743 141.6 71.1613 142.721C74.9187 144.111 76.5947 145.192 78.6221 147.487C80.5008 149.593 81.7307 151.686 81.5956 152.51L81.528 152.942L82.3389 153.037C82.7985 153.077 84.7853 153.118 86.7722 153.118C89.5024 153.118 90.4214 153.077 90.5161 152.942C90.5836 152.861 90.908 152.159 91.2189 151.389C92.2191 149.013 93.3274 147.433 94.8952 146.15C96.7199 144.665 98.3012 143.868 102.991 142.1C104.289 141.614 106.316 140.736 107.479 140.155C108.654 139.575 109.614 139.143 109.614 139.21C109.614 139.548 108.965 141.316 108.506 142.248C107.127 144.962 103.545 149.377 101.342 151.065C100.977 151.335 100.734 151.578 100.802 151.605C101.072 151.686 106.803 150.134 108.736 149.431L109.276 149.242L109.371 148.257C109.682 145.205 110.912 142.896 114.02 139.48C115.602 137.738 124.509 128.665 124.576 128.719C124.698 128.854 124.049 132.418 123.549 134.39C122.373 138.967 121.211 141.708 119.305 144.327L118.778 145.043L119.427 144.665C123.292 142.437 126.996 139.926 126.968 139.534C126.955 139.386 126.874 138.751 126.766 138.089C126.239 134.579 127.942 128.516 130.766 123.952C132.132 121.738 133.362 119.564 134.7 116.985C135.416 115.621 136.038 114.501 136.092 114.501C136.24 114.501 136.376 118.376 136.376 122.467C136.376 128.138 136.105 130.312 135.146 132.243L134.74 133.066L135.429 132.391C136.484 131.379 139.173 128.354 140.403 126.815L141.485 125.465L141.093 124.681C140.376 123.21 139.795 120.347 139.66 117.674C139.552 115.257 140.011 112.084 141.241 106.804C142.404 101.862 142.998 98.8377 142.998 97.9061C142.998 97.312 143.188 96.9474 143.404 97.1634C143.674 97.4335 144.593 99.7154 145.012 101.187C145.499 102.915 146.242 106.291 146.675 108.762C147.094 111.233 147.08 113.528 146.607 116.134C146.404 117.228 146.215 118.227 146.161 118.362C145.999 118.889 147.499 116.256 148.54 114.217C149.689 111.949 150.419 110.369 151.311 108.154L151.892 106.75L151.432 106.399C149.932 105.278 147.756 100.863 147.256 97.9196C146.648 94.3549 145.634 80.0828 145.972 79.7453C146.337 79.3807 148.27 82.0812 150.581 86.2129C153.203 90.9118 154.014 93.4232 154.203 97.42L154.284 99.3103L154.595 98.0276C155.298 95.1516 155.96 91.3979 156.244 88.7109C156.325 87.9277 156.42 87.1176 156.447 86.9016C156.501 86.564 156.487 86.537 156.312 86.6855C156.014 86.9286 155.717 86.618 153.879 84.1876C151.892 81.5411 150.162 78.9621 149.621 77.8279C149.216 76.9638 147.783 73.1156 147.486 72.1029C147.418 71.8463 147.094 70.8471 146.796 69.8885C145.985 67.3635 144.661 62.9482 144.512 62.2731C144.431 61.9625 144.431 61.706 144.485 61.706C144.823 61.706 150.811 67.5661 152.216 69.2674C154.271 71.7518 155.69 74.7494 156.447 78.2195C156.582 78.8001 156.704 79.2457 156.731 79.2187C156.825 79.1376 156.514 73.7232 156.325 71.9003C155.974 68.5922 155.541 66.0268 155.338 66.0268C155.001 66.0268 154.135 65.5137 152.784 64.501C149.459 62.0165 147.121 59.3296 142.931 53.1319C141.836 51.4981 140.241 49.2432 139.39 48.1225C138.552 47.0018 137.862 45.9891 137.862 45.8676C137.862 45.5706 138.295 45.7191 139.984 46.5697C143.107 48.136 147.715 50.9985 149.283 52.3353C150.27 53.1859 151.743 54.8602 152.703 56.224C153.014 56.6696 153.27 56.9936 153.27 56.9531C153.27 56.521 151.23 51.1066 150.216 48.7976L149.608 47.4474L148.824 47.2854C147.391 46.9883 144.12 45.2465 140.971 43.1131C138.754 41.6008 137.362 40.5206 135.227 38.6168C134.254 37.7526 132.672 36.4159 131.713 35.6192C129.604 33.9044 129.185 33.4994 129.239 33.2293C129.307 32.8918 130.618 32.9863 132.659 33.4724C137.024 34.512 140.606 36.0648 143.593 38.1982C144.174 38.6168 144.782 39.0489 144.931 39.1569C145.512 39.5755 141.268 33.5939 139.836 32.0006C139.484 31.609 139.457 31.5955 138.187 31.5955C134.673 31.5955 130.726 30.5558 126.306 28.463C125.036 27.8688 122.738 26.8156 121.184 26.1135C119.643 25.4249 118.278 24.7768 118.183 24.6958C117.859 24.4257 117.967 24.0746 118.426 23.8991C119.629 23.4805 126.022 23.5076 128.807 23.9531C130.091 24.1557 132.023 24.6688 132.97 25.0468L133.47 25.2494L132.794 24.6418C131.848 23.7776 129.307 21.6442 128.334 20.9016L127.523 20.267L126.441 20.5775C123.779 21.3472 119.913 21.3742 114.142 20.6585C109.641 20.1049 107.181 19.8484 106.249 19.8349C105.397 19.8349 104.6 19.6053 104.505 19.3353C104.383 18.9302 108.952 17.2019 111.858 16.5538C112.669 16.3647 113.926 16.1487 114.655 16.0542C116.331 15.8517 120.305 15.9732 121.44 16.2567C121.887 16.3648 122.265 16.4323 122.278 16.4188C122.292 16.4053 121.9 16.0812 121.4 15.7031C120.9 15.3251 119.562 14.3124 118.413 13.4482C117.278 12.5841 116.291 11.9224 116.223 11.963C116.142 12.0034 115.453 11.9765 114.683 11.8819C111.506 11.5444 109.168 10.2346 105.897 6.95354C102.532 3.57791 100.329 0.526382 100.977 0.121307C101.207 -0.0272217 101.18 -0.0272369 101.842 0.215805Z" fill="black"/>
<path d="M35.4792 11.6117C35.4522 12.6108 35.3846 14.7712 35.344 16.405C35.2494 20.0237 35.0602 22.1301 34.7223 23.4668C34.3979 24.736 33.4653 26.7209 32.4787 28.2062C31.3569 29.9075 28.0995 33.0806 27.4778 33.0806C26.4506 33.0806 25.8018 26.8829 26.5046 23.6964C27.0588 21.1444 28.3698 18.6194 30.654 15.6624C31.519 14.5552 34.4114 11.0581 35.1819 10.2074L35.5603 9.78883L35.4792 11.6117Z" fill="black"/>
<path d="M20.2739 135.254C28.6673 135.848 31.1947 136.158 34.2088 136.915C38.0879 137.887 41.1425 139.44 44.589 142.154C45.8865 143.18 46.3191 143.895 46.0217 144.476C45.5081 145.462 41.2776 146.38 38.196 146.177C35.5739 145.988 32.0057 145.043 29.3836 143.814C26.3696 142.397 17.0841 136.348 16.8003 135.605C16.7598 135.497 16.8003 135.348 16.9084 135.281C17.0841 135.173 18.9223 135.159 20.2739 135.254Z" fill="black"/>
</mask>
<g mask="url(#mask1)">
<rect width="99.7388" height="191.474" transform="matrix(-1 0 0 1 89.2723 -11.082)" fill="url(#paint6_linear)"/>
</g>
<defs>
<linearGradient id="paint0_linear" x1="122.126" y1="120" x2="116.109" y2="133.926" gradientUnits="userSpaceOnUse">
<stop stop-color="#BE6CFD"/>
<stop offset="1" stop-color="#7367FF"/>
</linearGradient>
<linearGradient id="paint1_linear" x1="135.314" y1="121.25" x2="130.695" y2="132.089" gradientUnits="userSpaceOnUse">
<stop stop-color="#BE6CFD"/>
<stop offset="1" stop-color="#7367FF"/>
</linearGradient>
<linearGradient id="paint2_linear" x1="108.309" y1="121.25" x2="103.592" y2="131.984" gradientUnits="userSpaceOnUse">
<stop stop-color="#BE6CFD"/>
<stop offset="1" stop-color="#7367FF"/>
</linearGradient>
<linearGradient id="paint3_linear" x1="144.986" y1="122.25" x2="141.763" y2="129.999" gradientUnits="userSpaceOnUse">
<stop stop-color="#BE6CFD"/>
<stop offset="1" stop-color="#7367FF"/>
</linearGradient>
<linearGradient id="paint4_linear" x1="99.0145" y1="122.25" x2="95.7924" y2="129.999" gradientUnits="userSpaceOnUse">
<stop stop-color="#BE6CFD"/>
<stop offset="1" stop-color="#7367FF"/>
</linearGradient>
<linearGradient id="paint5_linear" x1="202.601" y1="-11.082" x2="45.7918" y2="168.125" gradientUnits="userSpaceOnUse">
<stop stop-color="#BE6CFD"/>
<stop offset="1" stop-color="#7367FF"/>
</linearGradient>
<linearGradient id="paint6_linear" x1="49.8694" y1="-3.5588e-06" x2="-106.94" y2="179.207" gradientUnits="userSpaceOnUse">
<stop stop-color="#BE6CFD"/>
<stop offset="1" stop-color="#7367FF"/>
</linearGradient>
</defs>
</svg>
