<svg width="470" height="350" viewBox="0 0 470 350" fill="none" xmlns="http://www.w3.org/2000/svg">
<rect x="305" y="250" width="116" height="41" rx="20.5" fill="url(#paint0_linear)"/>
<path d="M322.148 276.5H324.256V272.568H326.483C329.17 272.568 330.614 270.955 330.614 268.716C330.614 266.494 329.188 264.864 326.511 264.864H322.148V276.5ZM324.256 270.835V266.625H326.188C327.767 266.625 328.466 267.477 328.466 268.716C328.466 269.955 327.767 270.835 326.199 270.835H324.256ZM332.354 276.5H334.411V271.369C334.411 270.261 335.246 269.477 336.376 269.477C336.723 269.477 337.155 269.54 337.331 269.597V267.705C337.143 267.67 336.82 267.648 336.592 267.648C335.592 267.648 334.757 268.216 334.439 269.227H334.348V267.773H332.354V276.5ZM342.202 276.67C344.236 276.67 345.634 275.676 345.997 274.159L344.077 273.943C343.798 274.682 343.116 275.068 342.23 275.068C340.901 275.068 340.02 274.193 340.003 272.699H346.082V272.068C346.082 269.006 344.241 267.659 342.094 267.659C339.594 267.659 337.963 269.494 337.963 272.188C337.963 274.926 339.571 276.67 342.202 276.67ZM340.009 271.312C340.071 270.199 340.895 269.261 342.122 269.261C343.304 269.261 344.099 270.125 344.111 271.312H340.009ZM355.368 267.773H353.18L351.169 274.256H351.078L349.072 267.773H346.879L349.987 276.5H352.26L355.368 267.773ZM360.358 276.67C362.392 276.67 363.79 275.676 364.153 274.159L362.233 273.943C361.955 274.682 361.273 275.068 360.386 275.068C359.057 275.068 358.176 274.193 358.159 272.699H364.239V272.068C364.239 269.006 362.398 267.659 360.25 267.659C357.75 267.659 356.119 269.494 356.119 272.188C356.119 274.926 357.727 276.67 360.358 276.67ZM358.165 271.312C358.227 270.199 359.051 269.261 360.278 269.261C361.46 269.261 362.256 270.125 362.267 271.312H358.165ZM368.036 271.386C368.036 270.125 368.797 269.398 369.882 269.398C370.945 269.398 371.581 270.097 371.581 271.261V276.5H373.638V270.943C373.643 268.852 372.45 267.659 370.649 267.659C369.342 267.659 368.445 268.284 368.047 269.256H367.945V267.773H365.979V276.5H368.036V271.386ZM380.087 267.773H378.365V265.682H376.308V267.773H375.07V269.364H376.308V274.216C376.297 275.858 377.49 276.665 379.036 276.619C379.621 276.602 380.024 276.489 380.246 276.415L379.899 274.807C379.786 274.835 379.553 274.886 379.297 274.886C378.78 274.886 378.365 274.705 378.365 273.875V269.364H380.087V267.773ZM381.807 276.5H383.864V267.773H381.807V276.5ZM382.841 266.534C383.494 266.534 384.028 266.034 384.028 265.42C384.028 264.801 383.494 264.301 382.841 264.301C382.182 264.301 381.648 264.801 381.648 265.42C381.648 266.034 382.182 266.534 382.841 266.534ZM389.786 276.67C392.342 276.67 393.967 274.869 393.967 272.17C393.967 269.466 392.342 267.659 389.786 267.659C387.229 267.659 385.604 269.466 385.604 272.17C385.604 274.869 387.229 276.67 389.786 276.67ZM389.797 275.023C388.382 275.023 387.689 273.761 387.689 272.165C387.689 270.568 388.382 269.29 389.797 269.29C391.189 269.29 391.882 270.568 391.882 272.165C391.882 273.761 391.189 275.023 389.797 275.023ZM397.77 271.386C397.77 270.125 398.531 269.398 399.616 269.398C400.679 269.398 401.315 270.097 401.315 271.261V276.5H403.372V270.943C403.378 268.852 402.185 267.659 400.384 267.659C399.077 267.659 398.179 268.284 397.781 269.256H397.679V267.773H395.713V276.5H397.77V271.386Z" fill="black"/>
<circle cx="225.456" cy="175" r="121.244" transform="rotate(-135 225.456 175)" stroke="url(#paint1_linear)" stroke-width="5"/>
<circle cx="225.66" cy="166.858" r="145.776" stroke="url(#paint2_linear)" stroke-width="5"/>
<circle cx="225.659" cy="166.858" r="123.243" fill="url(#paint3_linear)"/>
<path d="M226 258.504C229.099 258.504 232.072 257.272 234.264 255.081C236.455 252.889 237.687 249.917 237.687 246.817V244.187H214.314V246.807C214.312 248.343 214.614 249.864 215.2 251.283C215.787 252.702 216.648 253.991 217.733 255.077C218.818 256.164 220.107 257.025 221.526 257.613C222.944 258.201 224.465 258.504 226 258.504Z" fill="#9297AB"/>
<path d="M226 259.747C222.571 259.74 219.285 258.374 216.861 255.948C214.437 253.522 213.074 250.234 213.07 246.805V242.943H238.93V246.807C238.925 250.236 237.562 253.523 235.138 255.949C232.715 258.374 229.429 259.74 226 259.747ZM215.557 245.427V246.805C215.557 249.578 216.658 252.237 218.619 254.197C220.579 256.158 223.239 257.259 226.011 257.259C228.784 257.259 231.443 256.158 233.404 254.197C235.364 252.237 236.466 249.578 236.466 246.805V245.427H215.557Z" fill="#191C2C"/>
<path d="M200.506 210.893H251.494V235.827C251.494 238.611 250.388 241.281 248.419 243.25C246.45 245.219 243.78 246.325 240.996 246.325H211.002C208.217 246.325 205.547 245.219 203.578 243.25C201.61 241.281 200.504 238.611 200.504 235.827V210.893H200.506Z" fill="#9297AB"/>
<path d="M251.486 210.88V235.819C251.487 238.605 250.383 241.277 248.415 243.249C246.448 245.22 243.779 246.331 240.993 246.337H233.733C236.518 246.331 239.188 245.22 241.155 243.249C243.122 241.277 244.227 238.605 244.226 235.819V210.88H251.486Z" fill="#84879C"/>
<path d="M200.506 221.425H251.496V223.912H200.506V221.425Z" fill="#191C2C"/>
<path d="M200.506 233.306H251.496V235.793H200.506V233.306Z" fill="#191C2C"/>
<path d="M181.468 90.9766L183.734 89.952L189.608 102.94L187.342 103.965L181.468 90.9766Z" fill="#191C2C"/>
<path d="M162.603 106.274L164.167 104.342L175.243 113.309L173.679 115.241L162.603 106.274Z" fill="#191C2C"/>
<path d="M152.614 128.377L153.143 125.951L167.07 128.987L166.541 131.414L152.614 128.377Z" fill="#191C2C"/>
<path d="M262.371 102.95L268.245 89.9612L270.511 90.9858L264.637 103.974L262.371 102.95Z" fill="#191C2C"/>
<path d="M276.682 113.284L287.758 104.318L289.322 106.25L278.246 115.216L276.682 113.284Z" fill="#191C2C"/>
<path d="M284.913 129L298.84 125.963L299.369 128.39L285.442 131.426L284.913 129Z" fill="#191C2C"/>
<path d="M221.872 194.079H232.36V196.566H221.872V194.079Z" fill="#191C2C"/>
<path d="M221.872 120.608H232.36V123.095H221.872V120.608Z" fill="#191C2C"/>
<path d="M260.627 116.505C264.697 117.453 268.345 119.708 271.012 122.925C273.679 126.143 275.218 130.146 275.394 134.321C275.415 135.149 275.34 135.977 275.168 136.788C277.61 138.518 279.609 140.801 281 143.451C282.392 146.1 283.137 149.042 283.174 152.035C283.153 154.652 282.576 157.235 281.482 159.612C280.388 161.99 278.802 164.108 276.829 165.827C278.413 168.544 279.247 171.633 279.246 174.779C279.146 178.517 277.952 182.143 275.809 185.208C273.667 188.274 270.672 190.642 267.196 192.02C266.251 202.67 256.28 211.019 244.156 211.019H243.987C240.206 211.092 236.546 209.679 233.795 207.084C231.044 204.488 229.421 200.917 229.275 197.137V107.586C230.237 102.216 234.802 99.7241 240.897 99.7838C252.829 100.594 258.17 109.949 260.627 116.505Z" fill="#FCD462"/>
<path d="M260.338 197.553C262.868 196.447 265.163 194.869 267.102 192.903C266.586 196.155 265.299 199.236 263.348 201.888C261.397 204.539 258.839 206.685 255.888 208.145C258.424 205.155 259.978 201.457 260.338 197.553Z" fill="#F7BE56"/>
<path d="M276.824 165.825C278.401 168.544 279.233 171.632 279.236 174.776C279.157 178.306 278.093 181.743 276.164 184.7C274.235 187.657 271.518 190.016 268.32 191.51C270.627 188.722 272.022 185.293 272.316 181.686C272.609 178.079 271.787 174.469 269.961 171.345C271.934 169.624 273.52 167.505 274.613 165.126C275.706 162.747 276.282 160.163 276.302 157.545C276.268 154.552 275.525 151.61 274.133 148.96C272.741 146.31 270.74 144.029 268.295 142.303C268.472 141.494 268.547 140.668 268.519 139.841C268.348 135.662 266.81 131.655 264.142 128.435C261.474 125.214 257.823 122.958 253.749 122.013C251.312 115.449 245.966 106.099 234.031 105.304C232.61 105.273 231.191 105.415 229.804 105.726C231.396 101.649 235.548 99.7339 240.894 99.7837C252.829 100.604 258.175 109.953 260.637 116.518C264.704 117.463 268.349 119.717 271.012 122.932C273.675 126.148 275.21 130.149 275.382 134.321C275.409 135.148 275.334 135.974 275.158 136.783C277.601 138.511 279.6 140.793 280.992 143.442C282.384 146.091 283.128 149.032 283.164 152.025C283.144 154.643 282.569 157.227 281.476 159.606C280.383 161.985 278.797 164.104 276.824 165.825Z" fill="#F7BE56"/>
<path d="M253.058 167.103C252.82 167.104 252.587 167.036 252.387 166.909C252.187 166.781 252.027 166.599 251.927 166.383C251.827 166.167 251.791 165.928 251.823 165.692C251.855 165.457 251.954 165.235 252.108 165.054C253.541 163.082 255.399 161.457 257.544 160.299C259.69 159.14 262.068 158.479 264.503 158.363C272.037 158.363 277.55 164.781 277.779 165.054C277.983 165.307 278.08 165.63 278.049 165.953C278.019 166.276 277.863 166.575 277.615 166.785C277.367 166.995 277.047 167.099 276.723 167.076C276.399 167.053 276.097 166.904 275.881 166.661C275.832 166.604 270.869 160.85 264.503 160.85H264.488C262.419 160.978 260.405 161.566 258.592 162.571C256.779 163.575 255.213 164.972 254.008 166.658C253.891 166.797 253.746 166.909 253.582 166.986C253.418 167.063 253.239 167.103 253.058 167.103Z" fill="#191C2C"/>
<path d="M262.71 160.984C262.572 160.984 262.434 160.962 262.303 160.917C260.081 160.103 258.073 158.794 256.433 157.088C254.793 155.382 253.564 153.325 252.839 151.073C252.798 150.915 252.788 150.75 252.81 150.588C252.833 150.426 252.887 150.27 252.969 150.129C253.052 149.989 253.161 149.865 253.291 149.767C253.422 149.668 253.57 149.596 253.728 149.555C253.886 149.513 254.051 149.504 254.213 149.526C254.374 149.548 254.53 149.602 254.671 149.685C254.812 149.767 254.935 149.877 255.034 150.007C255.133 150.137 255.205 150.285 255.246 150.444C255.878 152.295 256.911 153.983 258.272 155.388C259.633 156.793 261.288 157.879 263.118 158.569C263.395 158.666 263.629 158.858 263.779 159.111C263.928 159.364 263.983 159.662 263.934 159.951C263.885 160.241 263.735 160.503 263.51 160.693C263.286 160.882 263.002 160.986 262.708 160.986L262.71 160.984Z" fill="#191C2C"/>
<path d="M249.358 119.303C249.079 119.303 248.808 119.209 248.589 119.036C248.37 118.863 248.215 118.622 248.149 118.351C248.084 118.08 248.112 117.794 248.228 117.541C248.345 117.287 248.543 117.08 248.791 116.953C252.538 114.992 256.855 114.415 260.985 115.324C261.298 115.417 261.561 115.629 261.719 115.915C261.877 116.2 261.916 116.536 261.828 116.85C261.74 117.165 261.533 117.432 261.25 117.594C260.967 117.756 260.632 117.801 260.316 117.719C256.786 117.002 253.118 117.515 249.92 119.173C249.745 119.26 249.553 119.304 249.358 119.303Z" fill="#191C2C"/>
<path d="M266.813 193.268C264.035 193.449 261.251 193.031 258.648 192.041C256.046 191.052 253.687 189.515 251.73 187.534C251.62 187.414 251.535 187.273 251.479 187.119C251.423 186.966 251.398 186.803 251.406 186.64C251.413 186.477 251.452 186.316 251.521 186.169C251.59 186.021 251.688 185.888 251.809 185.778C251.929 185.667 252.07 185.582 252.224 185.526C252.377 185.471 252.54 185.446 252.703 185.453C252.866 185.46 253.026 185.499 253.174 185.569C253.322 185.638 253.455 185.735 253.565 185.856C255.664 188.153 259.702 190.896 267.189 190.779H267.204C267.533 190.777 267.85 190.906 268.085 191.138C268.319 191.37 268.452 191.685 268.454 192.015C268.456 192.345 268.327 192.662 268.095 192.896C267.864 193.131 267.548 193.264 267.219 193.266L266.813 193.268Z" fill="#191C2C"/>
<path d="M244.865 125.961C247.758 125.961 250.104 123.616 250.104 120.722C250.104 117.829 247.758 115.483 244.865 115.483C241.972 115.483 239.626 117.829 239.626 120.722C239.626 123.616 241.972 125.961 244.865 125.961Z" fill="url(#paint4_linear)"/>
<path d="M244.865 127.205C243.583 127.205 242.329 126.825 241.263 126.112C240.197 125.4 239.367 124.387 238.876 123.203C238.385 122.018 238.257 120.714 238.507 119.457C238.758 118.199 239.375 117.044 240.282 116.138C241.189 115.232 242.344 114.614 243.602 114.364C244.86 114.115 246.163 114.243 247.347 114.734C248.532 115.225 249.544 116.057 250.256 117.123C250.968 118.189 251.348 119.443 251.347 120.725C251.345 122.443 250.661 124.09 249.446 125.305C248.23 126.52 246.583 127.203 244.865 127.205ZM244.865 116.729C244.075 116.729 243.302 116.964 242.645 117.403C241.988 117.842 241.476 118.466 241.173 119.196C240.871 119.926 240.792 120.729 240.946 121.505C241.1 122.28 241.481 122.992 242.04 123.55C242.598 124.109 243.31 124.49 244.085 124.644C244.861 124.798 245.664 124.719 246.394 124.417C247.124 124.114 247.748 123.602 248.187 122.945C248.626 122.288 248.861 121.515 248.861 120.725C248.861 119.665 248.44 118.648 247.691 117.899C246.941 117.149 245.925 116.727 244.865 116.727V116.729Z" fill="#191C2C"/>
<path d="M252.829 150.916C255.723 150.916 258.068 148.57 258.068 145.677C258.068 142.784 255.723 140.438 252.829 140.438C249.936 140.438 247.59 142.784 247.59 145.677C247.59 148.57 249.936 150.916 252.829 150.916Z" fill="url(#paint5_linear)"/>
<path d="M252.829 152.156C251.547 152.155 250.295 151.773 249.23 151.06C248.165 150.347 247.335 149.334 246.845 148.149C246.356 146.964 246.229 145.661 246.48 144.404C246.731 143.147 247.349 141.993 248.257 141.087C249.164 140.181 250.319 139.565 251.576 139.316C252.834 139.066 254.137 139.196 255.321 139.687C256.505 140.178 257.517 141.009 258.228 142.075C258.94 143.142 259.319 144.395 259.319 145.677C259.316 147.396 258.631 149.044 257.415 150.259C256.198 151.474 254.549 152.156 252.829 152.156ZM252.829 141.681C252.039 141.682 251.267 141.918 250.611 142.358C249.955 142.798 249.444 143.422 249.143 144.153C248.842 144.883 248.764 145.686 248.919 146.461C249.074 147.235 249.455 147.947 250.014 148.505C250.573 149.063 251.285 149.443 252.06 149.596C252.835 149.75 253.638 149.67 254.368 149.368C255.097 149.065 255.721 148.553 256.16 147.896C256.598 147.239 256.832 146.467 256.832 145.677C256.832 145.151 256.728 144.631 256.527 144.146C256.326 143.661 256.031 143.22 255.659 142.849C255.287 142.478 254.846 142.184 254.36 141.984C253.875 141.783 253.355 141.68 252.829 141.681Z" fill="#191C2C"/>
<path d="M250.104 187.345C252.998 187.345 255.343 185 255.343 182.106C255.343 179.213 252.998 176.867 250.104 176.867C247.211 176.867 244.865 179.213 244.865 182.106C244.865 185 247.211 187.345 250.104 187.345Z" fill="url(#paint6_linear)"/>
<path d="M250.104 188.589C248.822 188.589 247.568 188.209 246.502 187.497C245.436 186.785 244.604 185.773 244.113 184.589C243.622 183.404 243.494 182.101 243.744 180.843C243.993 179.586 244.611 178.43 245.517 177.524C246.423 176.617 247.578 175.999 248.836 175.749C250.093 175.498 251.397 175.627 252.582 176.117C253.766 176.608 254.779 177.439 255.491 178.505C256.204 179.571 256.584 180.824 256.584 182.106C256.582 183.824 255.899 185.472 254.684 186.687C253.469 187.902 251.822 188.586 250.104 188.589ZM250.104 178.113C249.314 178.113 248.541 178.346 247.883 178.785C247.226 179.224 246.713 179.848 246.41 180.579C246.108 181.309 246.028 182.112 246.182 182.888C246.337 183.663 246.717 184.375 247.276 184.934C247.835 185.493 248.547 185.874 249.323 186.028C250.098 186.182 250.902 186.103 251.632 185.8C252.362 185.497 252.986 184.985 253.425 184.327C253.864 183.67 254.098 182.897 254.097 182.106C254.096 181.047 253.675 180.032 252.926 179.283C252.178 178.534 251.163 178.112 250.104 178.111V178.113Z" fill="#191C2C"/>
<path d="M191.373 116.505C187.303 117.453 183.655 119.708 180.988 122.925C178.321 126.143 176.782 130.146 176.606 134.321C176.585 135.149 176.66 135.977 176.832 136.788C174.39 138.518 172.391 140.801 171 143.451C169.608 146.1 168.863 149.042 168.826 152.035C168.848 154.652 169.424 157.235 170.518 159.612C171.612 161.99 173.198 164.108 175.171 165.827C173.587 168.544 172.753 171.633 172.754 174.779C172.854 178.517 174.048 182.143 176.191 185.208C178.333 188.274 181.328 190.642 184.804 192.02C185.749 202.67 195.72 211.019 207.844 211.019H208.013C211.794 211.092 215.454 209.679 218.205 207.084C220.956 204.488 222.579 200.917 222.725 197.137V107.586C221.763 102.216 217.198 99.7241 211.104 99.7838C199.171 100.594 193.83 109.949 191.373 116.505Z" fill="#FCD462"/>
<path d="M178.558 171.345C176.977 174.063 176.145 177.151 176.146 180.296C176.142 182.476 176.555 184.637 177.364 186.661C174.428 183.396 172.791 179.167 172.764 174.776C172.76 171.955 173.433 169.175 174.729 166.67C175.756 168.417 177.048 169.994 178.558 171.345Z" fill="#F7BE56"/>
<path d="M222.693 107.467C220.26 105.886 217.384 105.128 214.488 105.304C202.577 106.1 197.231 115.449 194.77 122.013C190.699 122.965 187.052 125.223 184.385 128.442C181.718 131.661 180.178 135.665 180 139.841C179.985 140.667 180.06 141.493 180.224 142.303C177.782 144.033 175.784 146.315 174.393 148.964C173.002 151.613 172.256 154.553 172.217 157.545C172.215 159.755 172.619 161.947 173.411 164.01C170.471 160.709 168.844 156.445 168.836 152.025C168.872 149.033 169.616 146.091 171.008 143.442C172.4 140.793 174.399 138.511 176.842 136.783C176.666 135.975 176.591 135.148 176.618 134.321C176.79 130.149 178.325 126.149 180.988 122.933C183.651 119.717 187.296 117.463 191.363 116.518C193.825 109.954 199.171 100.604 211.106 99.7839C217.148 99.7342 221.673 102.171 222.693 107.467Z" fill="#F7BE56"/>
<path d="M198.942 167.103C198.761 167.103 198.583 167.064 198.419 166.988C198.255 166.912 198.109 166.801 197.992 166.663C196.787 164.977 195.221 163.58 193.408 162.576C191.595 161.571 189.581 160.983 187.512 160.855H187.497C181.131 160.855 176.168 166.606 176.119 166.666C175.905 166.918 175.6 167.074 175.271 167.101C174.942 167.128 174.615 167.024 174.363 166.81C174.111 166.596 173.955 166.291 173.927 165.962C173.9 165.633 174.005 165.306 174.219 165.054C174.45 164.781 179.96 158.363 187.494 158.363C189.93 158.479 192.309 159.14 194.455 160.298C196.6 161.456 198.459 163.082 199.892 165.054C200.045 165.235 200.143 165.456 200.175 165.691C200.207 165.926 200.171 166.165 200.071 166.38C199.972 166.595 199.813 166.777 199.613 166.905C199.413 167.032 199.182 167.1 198.945 167.101L198.942 167.103Z" fill="#191C2C"/>
<path d="M189.289 160.984C188.996 160.984 188.712 160.88 188.487 160.69C188.263 160.501 188.113 160.238 188.064 159.949C188.015 159.659 188.069 159.362 188.219 159.109C188.368 158.856 188.602 158.664 188.879 158.567C190.709 157.877 192.364 156.791 193.725 155.386C195.086 153.981 196.12 152.292 196.751 150.441C196.793 150.283 196.865 150.135 196.963 150.004C197.062 149.874 197.185 149.765 197.326 149.682C197.467 149.6 197.623 149.546 197.785 149.523C197.947 149.501 198.111 149.511 198.269 149.552C198.427 149.593 198.576 149.665 198.706 149.764C198.836 149.863 198.946 149.986 199.028 150.127C199.111 150.268 199.165 150.424 199.187 150.586C199.209 150.747 199.2 150.912 199.158 151.07C198.434 153.322 197.205 155.38 195.565 157.085C193.926 158.791 191.919 160.101 189.697 160.914C189.566 160.96 189.428 160.984 189.289 160.984Z" fill="#191C2C"/>
<path d="M202.642 119.303C202.446 119.302 202.252 119.255 202.078 119.166C198.887 117.493 195.214 116.978 191.687 117.709C191.381 117.767 191.064 117.708 190.8 117.545C190.535 117.381 190.342 117.124 190.257 116.824C190.173 116.525 190.204 116.205 190.344 115.927C190.485 115.649 190.724 115.434 191.015 115.324C195.142 114.42 199.457 114.999 203.199 116.96C203.447 117.088 203.646 117.295 203.762 117.548C203.878 117.802 203.906 118.087 203.841 118.358C203.775 118.63 203.62 118.871 203.401 119.044C203.182 119.216 202.911 119.31 202.632 119.31L202.642 119.303Z" fill="#191C2C"/>
<path d="M185.187 193.268H184.779C184.616 193.267 184.454 193.234 184.304 193.171C184.153 193.107 184.017 193.015 183.902 192.899C183.67 192.664 183.541 192.347 183.543 192.017C183.545 191.688 183.678 191.372 183.913 191.14C184.147 190.909 184.464 190.78 184.794 190.782H185.184C187.617 190.957 190.059 190.608 192.345 189.758C194.631 188.908 196.707 187.578 198.435 185.856C198.657 185.613 198.967 185.468 199.297 185.453C199.626 185.438 199.948 185.555 200.192 185.778C200.435 186 200.58 186.31 200.594 186.64C200.609 186.969 200.492 187.291 200.27 187.534C198.313 189.515 195.954 191.052 193.352 192.041C190.749 193.03 187.965 193.449 185.187 193.268Z" fill="#191C2C"/>
<path d="M207.135 125.961C210.028 125.961 212.374 123.616 212.374 120.722C212.374 117.829 210.028 115.483 207.135 115.483C204.242 115.483 201.896 117.829 201.896 120.722C201.896 123.616 204.242 125.961 207.135 125.961Z" fill="url(#paint7_linear)"/>
<path d="M207.135 127.205C205.853 127.205 204.599 126.825 203.533 126.113C202.466 125.401 201.635 124.389 201.144 123.204C200.653 122.02 200.525 120.716 200.775 119.458C201.025 118.201 201.642 117.046 202.549 116.139C203.456 115.232 204.611 114.615 205.869 114.365C207.126 114.115 208.43 114.243 209.614 114.734C210.799 115.225 211.811 116.056 212.523 117.123C213.236 118.189 213.615 119.443 213.615 120.725C213.612 122.443 212.929 124.089 211.714 125.304C210.499 126.519 208.853 127.202 207.135 127.205ZM207.135 116.729C206.345 116.729 205.572 116.963 204.914 117.401C204.257 117.84 203.745 118.464 203.442 119.194C203.139 119.924 203.059 120.728 203.213 121.503C203.367 122.278 203.748 122.99 204.306 123.55C204.865 124.109 205.577 124.489 206.352 124.644C207.127 124.798 207.931 124.719 208.661 124.417C209.391 124.115 210.016 123.602 210.455 122.945C210.894 122.288 211.128 121.515 211.128 120.725C211.128 119.666 210.707 118.65 209.958 117.9C209.21 117.151 208.194 116.729 207.135 116.727V116.729Z" fill="#191C2C"/>
<path d="M199.171 150.916C202.064 150.916 204.41 148.57 204.41 145.677C204.41 142.784 202.064 140.438 199.171 140.438C196.277 140.438 193.932 142.784 193.932 145.677C193.932 148.57 196.277 150.916 199.171 150.916Z" fill="url(#paint8_linear)"/>
<path d="M199.171 152.156C197.889 152.157 196.635 151.777 195.569 151.065C194.502 150.353 193.671 149.341 193.18 148.157C192.689 146.972 192.56 145.669 192.81 144.411C193.06 143.153 193.677 141.998 194.584 141.091C195.49 140.185 196.645 139.567 197.903 139.317C199.16 139.066 200.464 139.195 201.648 139.685C202.833 140.176 203.846 141.006 204.558 142.073C205.27 143.139 205.651 144.392 205.651 145.674C205.649 147.392 204.965 149.04 203.751 150.255C202.536 151.47 200.889 152.154 199.171 152.156ZM199.171 141.681C198.38 141.68 197.607 141.914 196.95 142.353C196.292 142.792 195.78 143.416 195.477 144.146C195.174 144.877 195.095 145.68 195.249 146.456C195.403 147.231 195.784 147.943 196.343 148.502C196.902 149.061 197.614 149.442 198.389 149.596C199.165 149.75 199.968 149.671 200.699 149.368C201.429 149.065 202.053 148.553 202.492 147.895C202.931 147.238 203.165 146.465 203.164 145.674C203.163 144.615 202.742 143.601 201.993 142.852C201.244 142.103 200.23 141.682 199.171 141.681Z" fill="#191C2C"/>
<path d="M201.896 187.345C204.79 187.345 207.135 185 207.135 182.106C207.135 179.213 204.79 176.867 201.896 176.867C199.003 176.867 196.657 179.213 196.657 182.106C196.657 185 199.003 187.345 201.896 187.345Z" fill="url(#paint9_linear)"/>
<path d="M201.896 188.589C200.614 188.589 199.361 188.208 198.294 187.496C197.228 186.784 196.398 185.771 195.907 184.586C195.416 183.402 195.288 182.098 195.539 180.841C195.789 179.583 196.406 178.428 197.313 177.522C198.22 176.615 199.375 175.998 200.633 175.748C201.891 175.498 203.194 175.627 204.378 176.118C205.563 176.609 206.575 177.44 207.287 178.507C207.999 179.573 208.379 180.827 208.378 182.109C208.376 183.827 207.692 185.474 206.477 186.689C205.261 187.903 203.614 188.587 201.896 188.589ZM201.896 178.113C201.106 178.113 200.333 178.347 199.676 178.786C199.019 179.225 198.507 179.85 198.204 180.58C197.902 181.31 197.823 182.113 197.977 182.888C198.131 183.663 198.512 184.375 199.071 184.934C199.629 185.493 200.341 185.874 201.117 186.028C201.892 186.182 202.695 186.103 203.425 185.8C204.155 185.498 204.779 184.986 205.218 184.329C205.657 183.672 205.892 182.899 205.892 182.109C205.891 181.049 205.47 180.033 204.721 179.283C203.972 178.534 202.956 178.112 201.896 178.111V178.113Z" fill="#191C2C"/>
<path d="M244.233 254.721C243.923 254.721 243.624 254.605 243.395 254.396C243.166 254.186 243.023 253.899 242.995 253.589C242.968 253.28 243.057 252.972 243.245 252.725C243.433 252.478 243.707 252.31 244.012 252.255C247.751 251.552 251.141 249.6 253.625 246.718C256.11 243.837 257.542 240.198 257.688 236.396C257.693 236.233 257.731 236.072 257.799 235.923C257.866 235.775 257.963 235.641 258.082 235.529C258.323 235.304 258.644 235.184 258.973 235.195C259.137 235.201 259.297 235.238 259.446 235.306C259.595 235.373 259.729 235.47 259.84 235.589C259.952 235.708 260.039 235.849 260.096 236.002C260.153 236.155 260.18 236.317 260.174 236.481C260.007 240.848 258.362 245.03 255.508 248.34C252.654 251.65 248.76 253.893 244.465 254.702C244.388 254.716 244.311 254.722 244.233 254.721Z" fill="#191C2C"/>
<path d="M258.953 232.04C258.624 232.04 258.308 231.909 258.074 231.676C257.841 231.443 257.71 231.126 257.71 230.797V229.703C257.71 229.373 257.841 229.057 258.074 228.824C258.308 228.59 258.624 228.459 258.953 228.459C259.283 228.459 259.599 228.59 259.833 228.824C260.066 229.057 260.197 229.373 260.197 229.703V230.797C260.197 231.126 260.066 231.443 259.833 231.676C259.599 231.909 259.283 232.04 258.953 232.04Z" fill="#191C2C"/>
<path d="M196.473 98.5502C196.209 98.5502 195.952 98.4662 195.739 98.3105C195.526 98.1548 195.368 97.9354 195.288 97.684C195.208 97.4326 195.21 97.1623 195.294 96.9121C195.378 96.662 195.539 96.445 195.754 96.2925L196.016 96.1035C196.287 95.9095 196.558 95.7156 196.839 95.5366C197.117 95.3592 197.454 95.2995 197.776 95.3706C198.098 95.4417 198.378 95.6378 198.555 95.9157C198.733 96.1937 198.793 96.5308 198.721 96.8527C198.65 97.1747 198.454 97.4553 198.176 97.6327C197.928 97.7868 197.701 97.9559 197.465 98.13L197.189 98.3264C196.979 98.473 196.729 98.5511 196.473 98.5502Z" fill="#191C2C"/>
<path d="M221.649 95.9573C221.447 95.957 221.248 95.9075 221.069 95.8131C218.053 94.2793 214.706 93.5108 211.322 93.5753L210.631 93.5927C208.242 93.7578 205.885 94.2368 203.622 95.0174C203.466 95.0757 203.301 95.1022 203.135 95.0955C202.969 95.0887 202.806 95.0488 202.656 94.9781C202.505 94.9074 202.371 94.8073 202.26 94.6837C202.149 94.5602 202.064 94.4157 202.01 94.2587C201.956 94.1018 201.934 93.9356 201.945 93.7699C201.956 93.6042 202 93.4425 202.075 93.2942C202.149 93.1459 202.253 93.0141 202.379 92.9065C202.506 92.7989 202.653 92.7177 202.811 92.6677C205.3 91.8077 207.892 91.2809 210.519 91.1012L211.295 91.0813C215.095 91.0135 218.852 91.8837 222.235 93.615C222.481 93.7449 222.676 93.9531 222.789 94.2066C222.903 94.4601 222.928 94.7443 222.861 95.0138C222.794 95.2833 222.639 95.5226 222.42 95.6936C222.201 95.8646 221.931 95.9575 221.654 95.9573H221.649Z" fill="#191C2C"/>
<path d="M244.151 212.27C240.012 212.387 235.994 210.862 232.973 208.029C229.953 205.196 228.175 201.283 228.027 197.145V107.586C229.071 101.688 233.773 98.4633 240.919 98.5404C250.368 99.1794 257.486 105.035 261.577 115.483C265.766 116.611 269.487 119.046 272.197 122.434C274.907 125.822 276.466 129.986 276.647 134.321C276.655 134.97 276.62 135.619 276.54 136.263C278.969 138.118 280.943 140.503 282.31 143.236C283.677 145.969 284.403 148.979 284.43 152.035C284.415 154.66 283.873 157.255 282.836 159.667C281.799 162.078 280.288 164.257 278.393 166.073C279.787 168.762 280.511 171.748 280.504 174.776C280.403 178.63 279.209 182.375 277.061 185.577C274.913 188.778 271.9 191.303 268.372 192.858C266.972 203.806 256.497 212.27 244.151 212.27ZM240.638 101.024C237.264 101.024 231.552 101.932 230.501 107.808L230.521 197.147C230.655 200.602 232.145 203.865 234.667 206.23C237.189 208.595 240.541 209.873 243.997 209.786C255.495 209.786 265.073 201.938 265.96 191.92C265.98 191.697 266.06 191.483 266.191 191.302C266.323 191.12 266.501 190.977 266.706 190.889C269.952 189.596 272.75 187.384 274.758 184.524C276.765 181.664 277.893 178.281 278.005 174.789C278.012 171.859 277.235 168.981 275.755 166.454C275.612 166.207 275.56 165.918 275.605 165.636C275.65 165.355 275.791 165.097 276.003 164.907C277.847 163.304 279.329 161.328 280.353 159.109C281.376 156.891 281.916 154.48 281.939 152.037C281.903 149.239 281.205 146.489 279.901 144.012C278.597 141.536 276.724 139.404 274.437 137.792C274.24 137.647 274.09 137.447 274.007 137.217C273.923 136.987 273.909 136.737 273.967 136.499C274.113 135.784 274.177 135.054 274.158 134.323C273.965 130.425 272.509 126.695 270.009 123.697C267.509 120.699 264.102 118.596 260.301 117.706C260.112 117.654 259.939 117.557 259.794 117.424C259.65 117.292 259.539 117.127 259.471 116.943C255.741 106.967 249.46 101.614 240.822 101.029L240.638 101.024Z" fill="#191C2C"/>
<path d="M208.02 212.27C195.506 212.27 185.028 203.816 183.653 192.875C180.125 191.32 177.112 188.795 174.964 185.594C172.816 182.393 171.622 178.647 171.521 174.794C171.514 171.765 172.238 168.78 173.632 166.091C171.737 164.274 170.226 162.096 169.189 159.684C168.152 157.273 167.61 154.677 167.595 152.052C167.622 148.996 168.347 145.987 169.715 143.253C171.082 140.52 173.055 138.135 175.485 136.28C175.405 135.636 175.37 134.987 175.378 134.338C175.555 130.001 177.111 125.834 179.821 122.442C182.531 119.051 186.252 116.613 190.443 115.483C194.534 105.04 201.632 99.1795 211.029 98.543H211.278C218.364 98.543 222.964 101.751 223.959 107.368L223.979 197.145C223.842 201.258 222.091 205.152 219.104 207.983C216.117 210.814 212.135 212.354 208.02 212.27ZM211.31 101.027H211.113C202.547 101.611 196.274 106.965 192.537 116.94C192.468 117.124 192.358 117.289 192.213 117.422C192.069 117.554 191.895 117.651 191.706 117.704C187.906 118.594 184.498 120.697 181.998 123.695C179.499 126.693 178.042 130.422 177.849 134.321C177.83 135.051 177.894 135.781 178.041 136.497C178.098 136.735 178.084 136.984 178.001 137.214C177.917 137.444 177.768 137.644 177.571 137.79C175.283 139.402 173.41 141.534 172.106 144.01C170.802 146.486 170.104 149.236 170.069 152.035C170.091 154.478 170.632 156.888 171.655 159.107C172.678 161.326 174.161 163.302 176.004 164.905C176.217 165.095 176.358 165.352 176.403 165.634C176.448 165.916 176.395 166.204 176.253 166.451C174.772 168.979 173.995 171.857 174.003 174.786C174.113 178.278 175.241 181.662 177.247 184.522C179.253 187.382 182.051 189.595 185.296 190.889C185.502 190.977 185.68 191.12 185.811 191.302C185.943 191.483 186.022 191.697 186.042 191.92C186.93 201.939 196.508 209.786 207.844 209.786C211.325 209.905 214.712 208.643 217.266 206.276C219.821 203.908 221.336 200.627 221.482 197.147V107.586C220.448 101.937 214.754 101.027 211.31 101.027Z" fill="#191C2C"/>
<path d="M240.999 247.568H211.002C207.889 247.565 204.904 246.327 202.703 244.125C200.502 241.924 199.264 238.94 199.26 235.827V209.649H252.737V235.827C252.734 238.939 251.496 241.923 249.296 244.124C247.095 246.326 244.111 247.564 240.999 247.568ZM201.749 212.135V235.829C201.752 238.283 202.728 240.635 204.463 242.37C206.198 244.105 208.55 245.081 211.004 245.084H240.999C243.452 245.081 245.805 244.105 247.54 242.37C249.275 240.635 250.251 238.283 250.253 235.829V212.135H201.749Z" fill="#191C2C"/>
<path d="M214.779 154.283C215.205 154.282 215.614 154.451 215.916 154.751C216.218 155.052 216.388 155.46 216.39 155.887L216.422 172.844C216.422 173.271 216.253 173.68 215.951 173.981C215.65 174.282 215.241 174.452 214.815 174.452C214.388 174.452 213.979 174.282 213.678 173.981C213.376 173.68 213.207 173.271 213.207 172.844L213.175 155.887C213.176 155.462 213.345 155.054 213.646 154.754C213.946 154.453 214.354 154.284 214.779 154.283Z" fill="white"/>
<path d="M214.766 148.253C215.192 148.252 215.601 148.421 215.903 148.721C216.206 149.022 216.376 149.43 216.377 149.857V150.7C216.377 151.126 216.208 151.535 215.906 151.836C215.605 152.138 215.196 152.307 214.77 152.307C214.343 152.307 213.935 152.138 213.633 151.836C213.332 151.535 213.162 151.126 213.162 150.7V149.857C213.164 149.432 213.333 149.025 213.633 148.724C213.934 148.424 214.341 148.254 214.766 148.253Z" fill="white"/>
<rect x="296" y="35" width="155" height="37" rx="18.5" fill="url(#paint10_linear)"/>
<path d="M313.148 59.5H315.256V55.2386H317.403L319.688 59.5H322.04L319.523 54.8864C320.892 54.3352 321.614 53.1648 321.614 51.5852C321.614 49.3636 320.182 47.8636 317.511 47.8636H313.148V59.5ZM315.256 53.4886V49.625H317.188C318.761 49.625 319.466 50.3466 319.466 51.5852C319.466 52.8239 318.761 53.4886 317.199 53.4886H315.256ZM327.202 59.6705C329.236 59.6705 330.634 58.6761 330.997 57.1591L329.077 56.9432C328.798 57.6818 328.116 58.0682 327.23 58.0682C325.901 58.0682 325.02 57.1932 325.003 55.6989H331.082V55.0682C331.082 52.0057 329.241 50.6591 327.094 50.6591C324.594 50.6591 322.963 52.4943 322.963 55.1875C322.963 57.9261 324.571 59.6705 327.202 59.6705ZM325.009 54.3125C325.071 53.1989 325.895 52.2614 327.122 52.2614C328.304 52.2614 329.099 53.125 329.111 54.3125H325.009ZM336.618 62.9545C338.976 62.9545 340.714 61.875 340.714 59.642V50.7727H338.686V52.2159H338.572C338.26 51.5852 337.607 50.6591 336.067 50.6591C334.05 50.6591 332.464 52.2386 332.464 55.108C332.464 57.9545 334.05 59.375 336.061 59.375C337.555 59.375 338.254 58.5739 338.572 57.9318H338.675V59.5852C338.675 60.8693 337.822 61.3977 336.652 61.3977C335.413 61.3977 334.868 60.8125 334.618 60.3011L332.766 60.75C333.141 61.9716 334.396 62.9545 336.618 62.9545ZM336.635 57.7614C335.277 57.7614 334.561 56.7045 334.561 55.0966C334.561 53.5114 335.266 52.3466 336.635 52.3466C337.959 52.3466 338.686 53.4432 338.686 55.0966C338.686 56.7614 337.947 57.7614 336.635 57.7614ZM342.822 59.5H344.879V54.3693C344.879 53.2614 345.714 52.4773 346.845 52.4773C347.192 52.4773 347.624 52.5398 347.8 52.5966V50.7045C347.612 50.6705 347.288 50.6477 347.061 50.6477C346.061 50.6477 345.226 51.2159 344.908 52.2273H344.817V50.7727H342.822V59.5ZM352.67 59.6705C354.705 59.6705 356.102 58.6761 356.466 57.1591L354.545 56.9432C354.267 57.6818 353.585 58.0682 352.699 58.0682C351.369 58.0682 350.489 57.1932 350.472 55.6989H356.551V55.0682C356.551 52.0057 354.71 50.6591 352.562 50.6591C350.062 50.6591 348.432 52.4943 348.432 55.1875C348.432 57.9261 350.04 59.6705 352.67 59.6705ZM350.477 54.3125C350.54 53.1989 351.364 52.2614 352.591 52.2614C353.773 52.2614 354.568 53.125 354.58 54.3125H350.477ZM362.649 50.7727H360.928V48.6818H358.871V50.7727H357.632V52.3636H358.871V57.2159C358.859 58.858 360.053 59.6648 361.598 59.6193C362.183 59.6023 362.587 59.4886 362.808 59.4148L362.462 57.8068C362.348 57.8352 362.115 57.8864 361.859 57.8864C361.342 57.8864 360.928 57.7045 360.928 56.875V52.3636H362.649V50.7727ZM369.923 59.5L370.884 56.6307H375.259L376.224 59.5H378.474L374.372 47.8636H371.77L367.673 59.5H369.923ZM371.452 54.9375L373.026 50.25H373.116L374.69 54.9375H371.452ZM386.618 50.7727H384.43L382.419 57.2557H382.328L380.322 50.7727H378.129L381.237 59.5H383.51L386.618 50.7727ZM391.608 59.6705C393.642 59.6705 395.04 58.6761 395.403 57.1591L393.483 56.9432C393.205 57.6818 392.523 58.0682 391.636 58.0682C390.307 58.0682 389.426 57.1932 389.409 55.6989H395.489V55.0682C395.489 52.0057 393.648 50.6591 391.5 50.6591C389 50.6591 387.369 52.4943 387.369 55.1875C387.369 57.9261 388.977 59.6705 391.608 59.6705ZM389.415 54.3125C389.477 53.1989 390.301 52.2614 391.528 52.2614C392.71 52.2614 393.506 53.125 393.517 54.3125H389.415ZM397.229 59.5H399.286V54.3693C399.286 53.2614 400.121 52.4773 401.251 52.4773C401.598 52.4773 402.03 52.5398 402.206 52.5966V50.7045C402.018 50.6705 401.695 50.6477 401.467 50.6477C400.467 50.6477 399.632 51.2159 399.314 52.2273H399.223V50.7727H397.229V59.5ZM410.47 53.0795C410.186 51.6023 409.004 50.6591 406.959 50.6591C404.857 50.6591 403.425 51.6932 403.43 53.3068C403.425 54.5795 404.209 55.4205 405.885 55.767L407.374 56.0795C408.175 56.2557 408.55 56.5795 408.55 57.0739C408.55 57.6705 407.902 58.1193 406.925 58.1193C405.982 58.1193 405.368 57.7102 405.192 56.9261L403.186 57.1193C403.442 58.7216 404.788 59.6705 406.93 59.6705C409.112 59.6705 410.652 58.5398 410.658 56.8864C410.652 55.642 409.851 54.8807 408.203 54.5227L406.714 54.2045C405.828 54.0057 405.476 53.6989 405.482 53.1932C405.476 52.6023 406.129 52.1932 406.987 52.1932C407.936 52.1932 408.436 52.7102 408.595 53.2841L410.47 53.0795ZM412.354 59.5H414.411V50.7727H412.354V59.5ZM413.388 49.5341C414.041 49.5341 414.575 49.0341 414.575 48.4205C414.575 47.8011 414.041 47.3011 413.388 47.3011C412.729 47.3011 412.195 47.8011 412.195 48.4205C412.195 49.0341 412.729 49.5341 413.388 49.5341ZM420.332 59.6705C422.889 59.6705 424.514 57.8693 424.514 55.1705C424.514 52.4659 422.889 50.6591 420.332 50.6591C417.776 50.6591 416.151 52.4659 416.151 55.1705C416.151 57.8693 417.776 59.6705 420.332 59.6705ZM420.344 58.0227C418.929 58.0227 418.236 56.7614 418.236 55.1648C418.236 53.5682 418.929 52.2898 420.344 52.2898C421.736 52.2898 422.429 53.5682 422.429 55.1648C422.429 56.7614 421.736 58.0227 420.344 58.0227ZM428.317 54.3864C428.317 53.125 429.078 52.3977 430.163 52.3977C431.226 52.3977 431.862 53.0966 431.862 54.2614V59.5H433.919V53.9432C433.925 51.8523 432.732 50.6591 430.93 50.6591C429.624 50.6591 428.726 51.2841 428.328 52.2557H428.226V50.7727H426.26V59.5H428.317V54.3864Z" fill="black"/>
<rect x="341" y="130" width="129" height="37" rx="18.5" fill="url(#paint11_linear)"/>
<path d="M362.148 142.864V154.5H364.17V146.489H364.278L367.494 154.466H369.006L372.222 146.506H372.33V154.5H374.352V142.864H371.773L368.318 151.295H368.182L364.727 142.864H362.148ZM379.068 154.676C380.438 154.676 381.256 154.034 381.631 153.301H381.699V154.5H383.676V148.659C383.676 146.352 381.795 145.659 380.131 145.659C378.295 145.659 376.886 146.477 376.432 148.068L378.352 148.341C378.557 147.744 379.136 147.233 380.142 147.233C381.097 147.233 381.619 147.722 381.619 148.58V148.614C381.619 149.205 381 149.233 379.46 149.398C377.767 149.58 376.148 150.085 376.148 152.051C376.148 153.767 377.403 154.676 379.068 154.676ZM379.602 153.165C378.744 153.165 378.131 152.773 378.131 152.017C378.131 151.227 378.818 150.898 379.739 150.767C380.278 150.693 381.358 150.557 381.625 150.341V151.369C381.625 152.341 380.841 153.165 379.602 153.165ZM387.426 145.773H385.244L387.835 150.136L385.176 154.5H387.358L389.188 151.358L391.034 154.5H393.199L390.523 150.136L393.153 145.773H390.977L389.188 148.994L387.426 145.773ZM394.744 154.5H396.801V145.773H394.744V154.5ZM395.778 144.534C396.432 144.534 396.966 144.034 396.966 143.42C396.966 142.801 396.432 142.301 395.778 142.301C395.119 142.301 394.585 142.801 394.585 143.42C394.585 144.034 395.119 144.534 395.778 144.534ZM398.916 154.5H400.973V149.193C400.973 148.119 401.689 147.392 402.575 147.392C403.445 147.392 404.041 147.977 404.041 148.875V154.5H406.058V149.057C406.058 148.074 406.643 147.392 407.638 147.392C408.467 147.392 409.126 147.881 409.126 148.96V154.5H411.189V148.642C411.189 146.693 410.064 145.659 408.462 145.659C407.195 145.659 406.229 146.284 405.842 147.256H405.751C405.416 146.267 404.57 145.659 403.393 145.659C402.223 145.659 401.348 146.261 400.984 147.256H400.882V145.773H398.916V154.5ZM413.276 154.5H415.332V145.773H413.276V154.5ZM414.31 144.534C414.963 144.534 415.497 144.034 415.497 143.42C415.497 142.801 414.963 142.301 414.31 142.301C413.651 142.301 413.116 142.801 413.116 143.42C413.116 144.034 413.651 144.534 414.31 144.534ZM417.334 154.5H424.499V152.795H420.067V152.722L424.351 147.176V145.773H417.482V147.477H421.834V147.551L417.334 153.193V154.5ZM426.432 154.5H428.489V145.773H426.432V154.5ZM427.466 144.534C428.119 144.534 428.653 144.034 428.653 143.42C428.653 142.801 428.119 142.301 427.466 142.301C426.807 142.301 426.273 142.801 426.273 143.42C426.273 144.034 426.807 144.534 427.466 144.534ZM432.661 149.386C432.661 148.125 433.422 147.398 434.507 147.398C435.57 147.398 436.206 148.097 436.206 149.261V154.5H438.263V148.943C438.268 146.852 437.075 145.659 435.274 145.659C433.967 145.659 433.07 146.284 432.672 147.256H432.57V145.773H430.604V154.5H432.661V149.386ZM444.149 157.955C446.507 157.955 448.246 156.875 448.246 154.642V145.773H446.217V147.216H446.104C445.791 146.585 445.138 145.659 443.598 145.659C441.581 145.659 439.996 147.239 439.996 150.108C439.996 152.955 441.581 154.375 443.592 154.375C445.087 154.375 445.786 153.574 446.104 152.932H446.206V154.585C446.206 155.869 445.354 156.398 444.183 156.398C442.945 156.398 442.399 155.812 442.149 155.301L440.297 155.75C440.672 156.972 441.928 157.955 444.149 157.955ZM444.166 152.761C442.808 152.761 442.092 151.705 442.092 150.097C442.092 148.511 442.797 147.347 444.166 147.347C445.49 147.347 446.217 148.443 446.217 150.097C446.217 151.761 445.479 152.761 444.166 152.761Z" fill="black"/>
<rect x="31" y="251" width="116" height="39" rx="19.5" fill="url(#paint12_linear)"/>
<path d="M50.1477 276.5H52.2557V272.568H54.483C57.1705 272.568 58.6136 270.955 58.6136 268.716C58.6136 266.494 57.1875 264.864 54.5114 264.864H50.1477V276.5ZM52.2557 270.835V266.625H54.1875C55.767 266.625 56.4659 267.477 56.4659 268.716C56.4659 269.955 55.767 270.835 54.1989 270.835H52.2557ZM60.3537 276.5H62.4105V271.369C62.4105 270.261 63.2457 269.477 64.3764 269.477C64.723 269.477 65.1548 269.54 65.331 269.597V267.705C65.1435 267.67 64.8196 267.648 64.5923 267.648C63.5923 267.648 62.7571 268.216 62.4389 269.227H62.348V267.773H60.3537V276.5ZM70.1449 276.67C72.7017 276.67 74.3267 274.869 74.3267 272.17C74.3267 269.466 72.7017 267.659 70.1449 267.659C67.5881 267.659 65.9631 269.466 65.9631 272.17C65.9631 274.869 67.5881 276.67 70.1449 276.67ZM70.1562 275.023C68.7415 275.023 68.0483 273.761 68.0483 272.165C68.0483 270.568 68.7415 269.29 70.1562 269.29C71.5483 269.29 72.2415 270.568 72.2415 272.165C72.2415 273.761 71.5483 275.023 70.1562 275.023ZM76.0724 276.5H78.1293V271.193C78.1293 270.119 78.8452 269.392 79.7315 269.392C80.6009 269.392 81.1974 269.977 81.1974 270.875V276.5H83.2145V271.057C83.2145 270.074 83.7997 269.392 84.794 269.392C85.6236 269.392 86.2827 269.881 86.2827 270.96V276.5H88.3452V270.642C88.3452 268.693 87.2202 267.659 85.6179 267.659C84.3509 267.659 83.3849 268.284 82.9986 269.256H82.9077C82.5724 268.267 81.7259 267.659 80.5497 267.659C79.3793 267.659 78.5043 268.261 78.1406 269.256H78.0384V267.773H76.0724V276.5ZM94.2386 276.67C96.7955 276.67 98.4205 274.869 98.4205 272.17C98.4205 269.466 96.7955 267.659 94.2386 267.659C91.6818 267.659 90.0568 269.466 90.0568 272.17C90.0568 274.869 91.6818 276.67 94.2386 276.67ZM94.25 275.023C92.8352 275.023 92.142 273.761 92.142 272.165C92.142 270.568 92.8352 269.29 94.25 269.29C95.642 269.29 96.3352 270.568 96.3352 272.165C96.3352 273.761 95.642 275.023 94.25 275.023ZM104.524 267.773H102.803V265.682H100.746V267.773H99.5071V269.364H100.746V274.216C100.734 275.858 101.928 276.665 103.473 276.619C104.058 276.602 104.462 276.489 104.683 276.415L104.337 274.807C104.223 274.835 103.99 274.886 103.734 274.886C103.217 274.886 102.803 274.705 102.803 273.875V269.364H104.524V267.773ZM106.244 276.5H108.301V267.773H106.244V276.5ZM107.278 266.534C107.932 266.534 108.466 266.034 108.466 265.42C108.466 264.801 107.932 264.301 107.278 264.301C106.619 264.301 106.085 264.801 106.085 265.42C106.085 266.034 106.619 266.534 107.278 266.534ZM114.223 276.67C116.78 276.67 118.405 274.869 118.405 272.17C118.405 269.466 116.78 267.659 114.223 267.659C111.666 267.659 110.041 269.466 110.041 272.17C110.041 274.869 111.666 276.67 114.223 276.67ZM114.234 275.023C112.82 275.023 112.126 273.761 112.126 272.165C112.126 270.568 112.82 269.29 114.234 269.29C115.626 269.29 116.32 270.568 116.32 272.165C116.32 273.761 115.626 275.023 114.234 275.023ZM122.207 271.386C122.207 270.125 122.969 269.398 124.054 269.398C125.116 269.398 125.753 270.097 125.753 271.261V276.5H127.81V270.943C127.815 268.852 126.622 267.659 124.821 267.659C123.514 267.659 122.616 268.284 122.219 269.256H122.116V267.773H120.151V276.5H122.207V271.386Z" fill="black"/>
<rect x="13" y="36" width="148" height="34" rx="17" fill="url(#paint13_linear)"/>
<path d="M39.0455 53.1818C39.0455 49.4205 36.75 47.2045 33.6989 47.2045C30.642 47.2045 28.3523 49.4205 28.3523 53.1818C28.3523 56.9375 30.642 59.1591 33.6989 59.1591C36.75 59.1591 39.0455 56.9432 39.0455 53.1818ZM36.9261 53.1818C36.9261 55.8295 35.5966 57.267 33.6989 57.267C31.8068 57.267 30.4716 55.8295 30.4716 53.1818C30.4716 50.5341 31.8068 49.0966 33.6989 49.0966C35.5966 49.0966 36.9261 50.5341 36.9261 53.1818ZM48.7429 50.2727H46.5554L44.544 56.7557H44.4531L42.4474 50.2727H40.2543L43.3622 59H45.6349L48.7429 50.2727ZM53.733 59.1705C55.767 59.1705 57.1648 58.1761 57.5284 56.6591L55.608 56.4432C55.3295 57.1818 54.6477 57.5682 53.7614 57.5682C52.4318 57.5682 51.5511 56.6932 51.5341 55.1989H57.6136V54.5682C57.6136 51.5057 55.7727 50.1591 53.625 50.1591C51.125 50.1591 49.4943 51.9943 49.4943 54.6875C49.4943 57.4261 51.1023 59.1705 53.733 59.1705ZM51.5398 53.8125C51.6023 52.6989 52.4261 51.7614 53.6534 51.7614C54.8352 51.7614 55.6307 52.625 55.642 53.8125H51.5398ZM59.3537 59H61.4105V53.8693C61.4105 52.7614 62.2457 51.9773 63.3764 51.9773C63.723 51.9773 64.1548 52.0398 64.331 52.0966V50.2045C64.1435 50.1705 63.8196 50.1477 63.5923 50.1477C62.5923 50.1477 61.7571 50.7159 61.4389 51.7273H61.348V50.2727H59.3537V59ZM70.6122 53.3068H65.3736V55H70.6122V53.3068ZM83.2642 53.1818C83.2642 49.4205 80.9688 47.2045 77.9176 47.2045C74.8608 47.2045 72.571 49.4205 72.571 53.1818C72.571 56.9375 74.8608 59.1591 77.9176 59.1591C80.9688 59.1591 83.2642 56.9432 83.2642 53.1818ZM81.1449 53.1818C81.1449 55.8295 79.8153 57.267 77.9176 57.267C76.0256 57.267 74.6903 55.8295 74.6903 53.1818C74.6903 50.5341 76.0256 49.0966 77.9176 49.0966C79.8153 49.0966 81.1449 50.5341 81.1449 53.1818ZM85.1662 62.2727H87.223V57.625H87.3082C87.6321 58.2614 88.3082 59.1534 89.8082 59.1534C91.8651 59.1534 93.4048 57.5227 93.4048 54.6477C93.4048 51.7386 91.8196 50.1591 89.8026 50.1591C88.2628 50.1591 87.6207 51.0852 87.3082 51.7159H87.1889V50.2727H85.1662V62.2727ZM87.1832 54.6364C87.1832 52.9432 87.9105 51.8466 89.2344 51.8466C90.6037 51.8466 91.3082 53.0114 91.3082 54.6364C91.3082 56.2727 90.5923 57.4659 89.2344 57.4659C87.9219 57.4659 87.1832 56.3295 87.1832 54.6364ZM99.5241 50.2727H97.8026V48.1818H95.7457V50.2727H94.5071V51.8636H95.7457V56.7159C95.7344 58.358 96.9276 59.1648 98.473 59.1193C99.0582 59.1023 99.4616 58.9886 99.6832 58.9148L99.3366 57.3068C99.223 57.3352 98.9901 57.3864 98.7344 57.3864C98.2173 57.3864 97.8026 57.2045 97.8026 56.375V51.8636H99.5241V50.2727ZM101.244 59H103.301V50.2727H101.244V59ZM102.278 49.0341C102.932 49.0341 103.466 48.5341 103.466 47.9205C103.466 47.3011 102.932 46.8011 102.278 46.8011C101.619 46.8011 101.085 47.3011 101.085 47.9205C101.085 48.5341 101.619 49.0341 102.278 49.0341ZM105.416 59H107.473V53.6932C107.473 52.6193 108.189 51.892 109.075 51.892C109.945 51.892 110.541 52.4773 110.541 53.375V59H112.558V53.5568C112.558 52.5739 113.143 51.892 114.138 51.892C114.967 51.892 115.626 52.3807 115.626 53.4602V59H117.689V53.142C117.689 51.1932 116.564 50.1591 114.962 50.1591C113.695 50.1591 112.729 50.7841 112.342 51.7557H112.251C111.916 50.767 111.07 50.1591 109.893 50.1591C108.723 50.1591 107.848 50.7614 107.484 51.7557H107.382V50.2727H105.416V59ZM119.776 59H121.832V50.2727H119.776V59ZM120.81 49.0341C121.463 49.0341 121.997 48.5341 121.997 47.9205C121.997 47.3011 121.463 46.8011 120.81 46.8011C120.151 46.8011 119.616 47.3011 119.616 47.9205C119.616 48.5341 120.151 49.0341 120.81 49.0341ZM130.845 52.5795C130.561 51.1023 129.379 50.1591 127.334 50.1591C125.232 50.1591 123.8 51.1932 123.805 52.8068C123.8 54.0795 124.584 54.9205 126.26 55.267L127.749 55.5795C128.55 55.7557 128.925 56.0795 128.925 56.5739C128.925 57.1705 128.277 57.6193 127.3 57.6193C126.357 57.6193 125.743 57.2102 125.567 56.4261L123.561 56.6193C123.817 58.2216 125.163 59.1705 127.305 59.1705C129.487 59.1705 131.027 58.0398 131.033 56.3864C131.027 55.142 130.226 54.3807 128.578 54.0227L127.089 53.7045C126.203 53.5057 125.851 53.1989 125.857 52.6932C125.851 52.1023 126.504 51.6932 127.362 51.6932C128.311 51.6932 128.811 52.2102 128.97 52.7841L130.845 52.5795ZM132.729 59H134.786V53.6932C134.786 52.6193 135.501 51.892 136.388 51.892C137.257 51.892 137.854 52.4773 137.854 53.375V59H139.871V53.5568C139.871 52.5739 140.456 51.892 141.45 51.892C142.28 51.892 142.939 52.3807 142.939 53.4602V59H145.001V53.142C145.001 51.1932 143.876 50.1591 142.274 50.1591C141.007 50.1591 140.041 50.7841 139.655 51.7557H139.564C139.229 50.767 138.382 50.1591 137.206 50.1591C136.036 50.1591 135.161 50.7614 134.797 51.7557H134.695V50.2727H132.729V59Z" fill="black"/>
<rect y="135" width="110" height="36" rx="18" fill="url(#paint14_linear)"/>
<path d="M21.4716 150.562H23.5C23.4602 148.597 21.7841 147.205 19.3068 147.205C16.8636 147.205 15.0284 148.58 15.0341 150.636C15.0341 152.307 16.2216 153.267 18.1364 153.761L19.4602 154.102C20.7159 154.42 21.5455 154.812 21.5511 155.716C21.5455 156.71 20.6023 157.375 19.2273 157.375C17.9091 157.375 16.8864 156.784 16.8011 155.562H14.7273C14.8125 157.875 16.5341 159.176 19.2443 159.176C22.0341 159.176 23.6534 157.784 23.6591 155.733C23.6534 153.716 21.9886 152.795 20.2386 152.381L19.1477 152.108C18.1932 151.881 17.1591 151.477 17.1705 150.506C17.1761 149.631 17.9602 148.989 19.2784 148.989C20.5341 148.989 21.3636 149.574 21.4716 150.562ZM27.9588 159.176C29.3281 159.176 30.1463 158.534 30.5213 157.801H30.5895V159H32.5668V153.159C32.5668 150.852 30.6861 150.159 29.0213 150.159C27.1861 150.159 25.777 150.977 25.3224 152.568L27.2429 152.841C27.4474 152.244 28.027 151.733 29.0327 151.733C29.9872 151.733 30.5099 152.222 30.5099 153.08V153.114C30.5099 153.705 29.8906 153.733 28.3509 153.898C26.6577 154.08 25.0384 154.585 25.0384 156.551C25.0384 158.267 26.294 159.176 27.9588 159.176ZM28.4929 157.665C27.6349 157.665 27.0213 157.273 27.0213 156.517C27.0213 155.727 27.7088 155.398 28.6293 155.267C29.169 155.193 30.2486 155.057 30.5156 154.841V155.869C30.5156 156.841 29.7315 157.665 28.4929 157.665ZM38.9929 150.273H37.2713V148.182H35.2145V150.273H33.9759V151.864H35.2145V156.716C35.2031 158.358 36.3963 159.165 37.9418 159.119C38.527 159.102 38.9304 158.989 39.152 158.915L38.8054 157.307C38.6918 157.335 38.4588 157.386 38.2031 157.386C37.6861 157.386 37.2713 157.205 37.2713 156.375V151.864H38.9929V150.273ZM40.7131 159H42.7699V150.273H40.7131V159ZM41.7472 149.034C42.4006 149.034 42.9347 148.534 42.9347 147.92C42.9347 147.301 42.4006 146.801 41.7472 146.801C41.0881 146.801 40.554 147.301 40.554 147.92C40.554 148.534 41.0881 149.034 41.7472 149.034ZM51.7827 152.58C51.4986 151.102 50.3168 150.159 48.2713 150.159C46.169 150.159 44.7372 151.193 44.7429 152.807C44.7372 154.08 45.5213 154.92 47.1974 155.267L48.6861 155.58C49.4872 155.756 49.8622 156.08 49.8622 156.574C49.8622 157.17 49.2145 157.619 48.2372 157.619C47.294 157.619 46.6804 157.21 46.5043 156.426L44.4986 156.619C44.7543 158.222 46.1009 159.17 48.2429 159.17C50.4247 159.17 51.9645 158.04 51.9702 156.386C51.9645 155.142 51.1634 154.381 49.5156 154.023L48.027 153.705C47.1406 153.506 46.7884 153.199 46.794 152.693C46.7884 152.102 47.4418 151.693 48.2997 151.693C49.2486 151.693 49.7486 152.21 49.9077 152.784L51.7827 152.58ZM58.0866 150.273H56.2741V149.585C56.2741 148.903 56.5582 148.523 57.3253 148.523C57.6491 148.523 57.9219 148.597 58.0923 148.648L58.5071 147.057C58.2401 146.966 57.6548 146.818 56.9446 146.818C55.4276 146.818 54.2173 147.688 54.2173 149.449V150.273H52.9276V151.864H54.2173V159H56.2741V151.864H58.0866V150.273ZM59.6974 159H61.7543V150.273H59.6974V159ZM60.7315 149.034C61.3849 149.034 61.919 148.534 61.919 147.92C61.919 147.301 61.3849 146.801 60.7315 146.801C60.0724 146.801 59.5384 147.301 59.5384 147.92C59.5384 148.534 60.0724 149.034 60.7315 149.034ZM67.6761 159.17C69.8693 159.17 71.267 157.869 71.4148 156.017H69.4489C69.2727 156.955 68.5966 157.494 67.6932 157.494C66.4091 157.494 65.5795 156.42 65.5795 154.636C65.5795 152.875 66.4261 151.818 67.6932 151.818C68.6818 151.818 69.2898 152.455 69.4489 153.295H71.4148C71.2727 151.403 69.7955 150.159 67.6648 150.159C65.108 150.159 63.4943 152.006 63.4943 154.67C63.4943 157.312 65.0682 159.17 67.6761 159.17ZM73.1037 159H75.1605V150.273H73.1037V159ZM74.1378 149.034C74.7912 149.034 75.3253 148.534 75.3253 147.92C75.3253 147.301 74.7912 146.801 74.1378 146.801C73.4787 146.801 72.9446 147.301 72.9446 147.92C72.9446 148.534 73.4787 149.034 74.1378 149.034ZM79.3324 153.886C79.3324 152.625 80.0938 151.898 81.179 151.898C82.2415 151.898 82.8778 152.597 82.8778 153.761V159H84.9347V153.443C84.9403 151.352 83.7472 150.159 81.946 150.159C80.6392 150.159 79.7415 150.784 79.3438 151.756H79.2415V150.273H77.2756V159H79.3324V153.886ZM90.821 162.455C93.179 162.455 94.9176 161.375 94.9176 159.142V150.273H92.8892V151.716H92.7756C92.4631 151.085 91.8097 150.159 90.2699 150.159C88.2528 150.159 86.6676 151.739 86.6676 154.608C86.6676 157.455 88.2528 158.875 90.2642 158.875C91.7585 158.875 92.4574 158.074 92.7756 157.432H92.8778V159.085C92.8778 160.369 92.0256 160.898 90.8551 160.898C89.6165 160.898 89.071 160.312 88.821 159.801L86.9688 160.25C87.3438 161.472 88.5994 162.455 90.821 162.455ZM90.8381 157.261C89.4801 157.261 88.7642 156.205 88.7642 154.597C88.7642 153.011 89.4688 151.847 90.8381 151.847C92.1619 151.847 92.8892 152.943 92.8892 154.597C92.8892 156.261 92.1506 157.261 90.8381 157.261Z" fill="black"/>
<defs>
<linearGradient id="paint0_linear" x1="284.954" y1="157.109" x2="488.509" y2="229.708" gradientUnits="userSpaceOnUse">
<stop stop-color="#B294FC"/>
<stop offset="1" stop-color="#86BDFE"/>
</linearGradient>
<linearGradient id="paint1_linear" x1="210.725" y1="185.714" x2="112.158" y2="-50.792" gradientUnits="userSpaceOnUse">
<stop stop-color="#BE6CFD" stop-opacity="0"/>
<stop offset="1" stop-color="#7367FF"/>
</linearGradient>
<linearGradient id="paint2_linear" x1="208.008" y1="179.696" x2="89.9004" y2="-103.698" gradientUnits="userSpaceOnUse">
<stop stop-color="#BE6CFD" stop-opacity="0"/>
<stop offset="1" stop-color="#7367FF"/>
</linearGradient>
<linearGradient id="paint3_linear" x1="225.659" y1="43.6157" x2="225.659" y2="290.101" gradientUnits="userSpaceOnUse">
<stop stop-color="white"/>
<stop offset="1" stop-color="white" stop-opacity="0"/>
</linearGradient>
<linearGradient id="paint4_linear" x1="237.815" y1="91.7441" x2="258.217" y2="94.3158" gradientUnits="userSpaceOnUse">
<stop stop-color="#B294FC"/>
<stop offset="1" stop-color="#86BDFE"/>
</linearGradient>
<linearGradient id="paint5_linear" x1="245.779" y1="116.699" x2="266.181" y2="119.27" gradientUnits="userSpaceOnUse">
<stop stop-color="#B294FC"/>
<stop offset="1" stop-color="#86BDFE"/>
</linearGradient>
<linearGradient id="paint6_linear" x1="243.054" y1="153.128" x2="263.456" y2="155.7" gradientUnits="userSpaceOnUse">
<stop stop-color="#B294FC"/>
<stop offset="1" stop-color="#86BDFE"/>
</linearGradient>
<linearGradient id="paint7_linear" x1="200.085" y1="91.7441" x2="220.487" y2="94.3158" gradientUnits="userSpaceOnUse">
<stop stop-color="#B294FC"/>
<stop offset="1" stop-color="#86BDFE"/>
</linearGradient>
<linearGradient id="paint8_linear" x1="192.121" y1="116.699" x2="212.522" y2="119.27" gradientUnits="userSpaceOnUse">
<stop stop-color="#B294FC"/>
<stop offset="1" stop-color="#86BDFE"/>
</linearGradient>
<linearGradient id="paint9_linear" x1="194.846" y1="153.128" x2="215.248" y2="155.7" gradientUnits="userSpaceOnUse">
<stop stop-color="#B294FC"/>
<stop offset="1" stop-color="#86BDFE"/>
</linearGradient>
<linearGradient id="paint10_linear" x1="269.214" y1="-48.8281" x2="508.948" y2="77.772" gradientUnits="userSpaceOnUse">
<stop stop-color="#B294FC"/>
<stop offset="1" stop-color="#86BDFE"/>
</linearGradient>
<linearGradient id="paint11_linear" x1="318.707" y1="46.1719" x2="532.561" y2="140.161" gradientUnits="userSpaceOnUse">
<stop stop-color="#FA94FC"/>
<stop offset="1" stop-color="#86BDFE"/>
</linearGradient>
<linearGradient id="paint12_linear" x1="10.9539" y1="162.641" x2="212.121" y2="238.067" gradientUnits="userSpaceOnUse">
<stop stop-color="#B294FC"/>
<stop offset="1" stop-color="#86BDFE"/>
</linearGradient>
<linearGradient id="paint13_linear" x1="-12.576" y1="-41.0313" x2="212.421" y2="82.4308" gradientUnits="userSpaceOnUse">
<stop stop-color="#FA94FC"/>
<stop offset="0.703125" stop-color="#8692FE"/>
</linearGradient>
<linearGradient id="paint14_linear" x1="-19.0092" y1="53.4375" x2="170.46" y2="126.417" gradientUnits="userSpaceOnUse">
<stop stop-color="#FA94FC"/>
<stop offset="0.703125" stop-color="#8692FE"/>
</linearGradient>
</defs>
</svg>
