<svg width="96" height="120" viewBox="0 0 96 120" fill="none" xmlns="http://www.w3.org/2000/svg">
<path d="M30.6896 111.374H65.4962C65.4962 115.859 61.86 119.495 57.3745 119.495H38.8109C34.3258 119.495 30.6896 115.859 30.6896 111.374ZM44.6119 88.7899V8.85519C44.6119 4.39761 41.0375 0.716204 36.58 0.689846C36.5501 0.689846 36.5202 0.689453 36.4903 0.689453C28.5519 0.689453 22.0258 6.85398 21.4491 14.6476C12.3727 15.2266 5.16486 22.7948 5.16486 32.0152C5.16486 33.6565 5.39343 35.2647 5.84702 36.823C2.50747 39.657 0.524353 43.8191 0.524353 48.2586C0.524353 52.6981 2.50747 56.8598 5.84702 59.6939C5.39382 61.2521 5.16486 62.8603 5.16486 64.5016C5.16486 73.7224 12.3731 81.2909 21.4503 81.8692C21.636 84.3244 22.431 86.6805 23.7808 88.7903H44.6119V88.7899ZM95.6614 48.2582C95.6614 43.8187 93.6783 39.657 90.3388 36.823C90.792 35.2647 91.0209 33.6565 91.0209 32.0152C91.0209 22.7952 83.8131 15.2266 74.7367 14.6476C74.1592 6.85398 67.6335 0.689453 59.6948 0.689453C59.6649 0.689453 59.635 0.689453 59.6051 0.689846C55.1475 0.716204 51.5731 4.39761 51.5731 8.85519V88.7899H72.4046C73.7544 86.6801 74.5494 84.324 74.7351 81.8689C83.8123 81.2906 91.0205 73.722 91.0205 64.5012C91.0205 62.8599 90.792 61.2517 90.3384 59.6935C93.6783 56.8594 95.6614 52.6977 95.6614 48.2582ZM23.7808 96.2912C23.7808 100.777 27.417 104.413 31.9025 104.413H64.2833C68.7689 104.413 72.405 100.777 72.405 96.2912V95.7514H23.7808V96.2912Z" fill="url(#paint0_linear)"/>
<defs>
<linearGradient id="paint0_linear" x1="48.0929" y1="0.689453" x2="48.0929" y2="119.495" gradientUnits="userSpaceOnUse">
<stop stop-color="#5D23E9"/>
<stop offset="1" stop-color="#6DA7F0"/>
</linearGradient>
</defs>
</svg>
