<svg width="106" height="106" viewBox="0 0 106 106" fill="none" xmlns="http://www.w3.org/2000/svg">
<g clip-path="url(#clip0)">
<path d="M59.5377 69.5597L67.3452 77.3672L77.495 67.2174L69.6875 59.4099L59.5377 69.5597Z" fill="url(#paint0_linear)"/>
<path d="M38.6457 72.8752C57.5499 72.8752 72.8748 57.5503 72.8748 38.6461C72.8748 19.7419 57.5499 4.41699 38.6457 4.41699C19.7415 4.41699 4.41663 19.7419 4.41663 38.6461C4.41663 57.5503 19.7415 72.8752 38.6457 72.8752Z" fill="#D2AEFF"/>
<path d="M66.0291 66.0291C51.0125 81.0456 26.2791 81.0456 11.2625 66.0291C-3.75409 51.0125 -3.75409 26.279 11.2625 11.2624C26.2791 -3.75415 51.0125 -3.75415 66.0291 11.2624C81.0457 26.279 81.2666 51.0125 66.0291 66.0291ZM17.6666 17.6665C5.96251 29.3706 5.96251 48.1415 17.6666 59.8456C29.3707 71.5497 48.1416 71.5497 59.8457 59.8456C71.5498 48.1415 71.5498 29.3706 59.8457 17.6665C48.1416 5.96245 29.15 5.96245 17.6666 17.6665Z" fill="url(#paint1_linear)"/>
<path d="M78.8372 65.3662C90.5413 73.5371 99.3747 79.9412 102.025 82.8121C107.325 88.1121 107.325 96.7246 102.025 102.025C96.7247 107.325 88.1122 107.325 82.8122 102.025C80.1622 99.3746 73.5372 90.5412 65.3663 78.8371L78.8372 65.3662Z" fill="url(#paint2_linear)"/>
<path d="M69.7831 85.0213C68.4581 83.0338 66.9122 81.0463 65.5872 79.0588L79.0581 65.5879C81.2665 67.1338 83.254 68.4588 85.0206 69.7838L69.7831 85.0213Z" fill="#5D23E9"/>
<path d="M67.7958 81.2664L81.2667 67.7955C82.5917 66.4705 82.5917 64.2621 81.2667 62.9371C79.9417 61.6121 77.7333 61.6121 76.4083 62.9371L62.9374 76.4082C61.6124 77.7332 61.6124 79.9416 62.9374 81.2666C64.2624 82.8123 66.4708 82.8123 67.7958 81.2664Z" fill="url(#paint3_linear)"/>
<path d="M38.6457 25.6162C44.3779 25.6162 49.0248 23.441 49.0248 20.7578C49.0248 18.0746 44.3779 15.8994 38.6457 15.8994C32.9135 15.8994 28.2666 18.0746 28.2666 20.7578C28.2666 23.441 32.9135 25.6162 38.6457 25.6162Z" fill="white"/>
</g>
<defs>
<linearGradient id="paint0_linear" x1="63.6594" y1="73.2455" x2="73.5912" y2="63.3137" gradientUnits="userSpaceOnUse">
<stop stop-color="#7A61F3"/>
<stop offset="1" stop-color="#634BDE"/>
</linearGradient>
<linearGradient id="paint1_linear" x1="38.6873" y1="1.6593" x2="38.6873" y2="77.2915" gradientUnits="userSpaceOnUse">
<stop stop-color="#7A61F3"/>
<stop offset="1" stop-color="#634BDE"/>
</linearGradient>
<linearGradient id="paint2_linear" x1="58.3444" y1="-26.6939" x2="137.46" y2="-16.7206" gradientUnits="userSpaceOnUse">
<stop stop-color="#5D23E9"/>
<stop offset="1" stop-color="#6DA7F0"/>
</linearGradient>
<linearGradient id="paint3_linear" x1="58.4327" y1="15.5377" x2="98.0007" y2="20.4853" gradientUnits="userSpaceOnUse">
<stop stop-color="#5D23E9"/>
<stop offset="1" stop-color="#6DA7F0"/>
</linearGradient>
<clipPath id="clip0">
<rect width="106" height="106" fill="white" transform="translate(-0.000183105)"/>
</clipPath>
</defs>
</svg>
