<svg width="93" height="21" viewBox="0 0 93 21" fill="none" xmlns="http://www.w3.org/2000/svg">
<path d="M29.648 14.084C29.088 14.084 28.584 13.988 28.136 13.796C27.688 13.596 27.336 13.316 27.08 12.956C26.824 12.596 26.696 12.176 26.696 11.696H28.16C28.192 12.056 28.332 12.352 28.58 12.584C28.836 12.816 29.192 12.932 29.648 12.932C30.12 12.932 30.488 12.82 30.752 12.596C31.016 12.364 31.148 12.068 31.148 11.708C31.148 11.428 31.064 11.2 30.896 11.024C30.736 10.848 30.532 10.712 30.284 10.616C30.044 10.52 29.708 10.416 29.276 10.304C28.732 10.16 28.288 10.016 27.944 9.872C27.608 9.72 27.32 9.488 27.08 9.176C26.84 8.864 26.72 8.448 26.72 7.928C26.72 7.448 26.84 7.028 27.08 6.668C27.32 6.308 27.656 6.032 28.088 5.84C28.52 5.648 29.02 5.552 29.588 5.552C30.396 5.552 31.056 5.756 31.568 6.164C32.088 6.564 32.376 7.116 32.432 7.82H30.92C30.896 7.516 30.752 7.256 30.488 7.04C30.224 6.824 29.876 6.716 29.444 6.716C29.052 6.716 28.732 6.816 28.484 7.016C28.236 7.216 28.112 7.504 28.112 7.88C28.112 8.136 28.188 8.348 28.34 8.516C28.5 8.676 28.7 8.804 28.94 8.9C29.18 8.996 29.508 9.1 29.924 9.212C30.476 9.364 30.924 9.516 31.268 9.668C31.62 9.82 31.916 10.056 32.156 10.376C32.404 10.688 32.528 11.108 32.528 11.636C32.528 12.06 32.412 12.46 32.18 12.836C31.956 13.212 31.624 13.516 31.184 13.748C30.752 13.972 30.24 14.084 29.648 14.084ZM33.6862 10.688C33.6862 10.008 33.8222 9.412 34.0942 8.9C34.3742 8.38 34.7582 7.98 35.2462 7.7C35.7342 7.42 36.2942 7.28 36.9262 7.28C37.7262 7.28 38.3862 7.472 38.9062 7.856C39.4342 8.232 39.7902 8.772 39.9742 9.476H38.4982C38.3782 9.148 38.1862 8.892 37.9222 8.708C37.6582 8.524 37.3262 8.432 36.9262 8.432C36.3662 8.432 35.9182 8.632 35.5822 9.032C35.2542 9.424 35.0902 9.976 35.0902 10.688C35.0902 11.4 35.2542 11.956 35.5822 12.356C35.9182 12.756 36.3662 12.956 36.9262 12.956C37.7182 12.956 38.2422 12.608 38.4982 11.912H39.9742C39.7822 12.584 39.4222 13.12 38.8942 13.52C38.3662 13.912 37.7102 14.108 36.9262 14.108C36.2942 14.108 35.7342 13.968 35.2462 13.688C34.7582 13.4 34.3742 13 34.0942 12.488C33.8222 11.968 33.6862 11.368 33.6862 10.688ZM42.7055 8.348C42.9055 8.012 43.1695 7.752 43.4975 7.568C43.8335 7.376 44.2295 7.28 44.6855 7.28V8.696H44.3375C43.8015 8.696 43.3935 8.832 43.1135 9.104C42.8415 9.376 42.7055 9.848 42.7055 10.52V14H41.3375V7.388H42.7055V8.348ZM48.811 14.108C48.187 14.108 47.623 13.968 47.119 13.688C46.615 13.4 46.219 13 45.931 12.488C45.643 11.968 45.499 11.368 45.499 10.688C45.499 10.016 45.647 9.42 45.943 8.9C46.239 8.38 46.643 7.98 47.155 7.7C47.667 7.42 48.239 7.28 48.871 7.28C49.503 7.28 50.075 7.42 50.587 7.7C51.099 7.98 51.503 8.38 51.799 8.9C52.095 9.42 52.243 10.016 52.243 10.688C52.243 11.36 52.091 11.956 51.787 12.476C51.483 12.996 51.067 13.4 50.539 13.688C50.019 13.968 49.443 14.108 48.811 14.108ZM48.811 12.92C49.163 12.92 49.491 12.836 49.795 12.668C50.107 12.5 50.359 12.248 50.551 11.912C50.743 11.576 50.839 11.168 50.839 10.688C50.839 10.208 50.747 9.804 50.563 9.476C50.379 9.14 50.135 8.888 49.831 8.72C49.527 8.552 49.199 8.468 48.847 8.468C48.495 8.468 48.167 8.552 47.863 8.72C47.567 8.888 47.331 9.14 47.155 9.476C46.979 9.804 46.891 10.208 46.891 10.688C46.891 11.4 47.071 11.952 47.431 12.344C47.799 12.728 48.259 12.92 48.811 12.92ZM54.9633 5.12V14H53.5953V5.12H54.9633ZM62.6006 5.66C63.4886 5.66 64.2646 5.832 64.9286 6.176C65.6006 6.512 66.1166 7 66.4766 7.64C66.8446 8.272 67.0286 9.012 67.0286 9.86C67.0286 10.708 66.8446 11.444 66.4766 12.068C66.1166 12.692 65.6006 13.172 64.9286 13.508C64.2646 13.836 63.4886 14 62.6006 14H59.8766V5.66H62.6006ZM62.6006 12.884C63.5766 12.884 64.3246 12.62 64.8446 12.092C65.3646 11.564 65.6246 10.82 65.6246 9.86C65.6246 8.892 65.3646 8.136 64.8446 7.592C64.3246 7.048 63.5766 6.776 62.6006 6.776H61.2446V12.884H62.6006ZM71.2524 14.108C70.6284 14.108 70.0644 13.968 69.5604 13.688C69.0564 13.4 68.6604 13 68.3724 12.488C68.0844 11.968 67.9404 11.368 67.9404 10.688C67.9404 10.016 68.0884 9.42 68.3844 8.9C68.6804 8.38 69.0844 7.98 69.5964 7.7C70.1084 7.42 70.6804 7.28 71.3124 7.28C71.9444 7.28 72.5164 7.42 73.0284 7.7C73.5404 7.98 73.9444 8.38 74.2404 8.9C74.5364 9.42 74.6844 10.016 74.6844 10.688C74.6844 11.36 74.5324 11.956 74.2284 12.476C73.9244 12.996 73.5084 13.4 72.9804 13.688C72.4604 13.968 71.8844 14.108 71.2524 14.108ZM71.2524 12.92C71.6044 12.92 71.9324 12.836 72.2364 12.668C72.5484 12.5 72.8004 12.248 72.9924 11.912C73.1844 11.576 73.2804 11.168 73.2804 10.688C73.2804 10.208 73.1884 9.804 73.0044 9.476C72.8204 9.14 72.5764 8.888 72.2724 8.72C71.9684 8.552 71.6404 8.468 71.2884 8.468C70.9364 8.468 70.6084 8.552 70.3044 8.72C70.0084 8.888 69.7724 9.14 69.5964 9.476C69.4204 9.804 69.3324 10.208 69.3324 10.688C69.3324 11.4 69.5124 11.952 69.8724 12.344C70.2404 12.728 70.7004 12.92 71.2524 12.92ZM84.9167 7.388L82.8647 14H81.4247L80.0927 9.116L78.7607 14H77.3207L75.2567 7.388H76.6487L78.0287 12.704L79.4327 7.388H80.8607L82.2047 12.68L83.5727 7.388H84.9167ZM89.2751 7.28C89.7951 7.28 90.2591 7.388 90.6671 7.604C91.0831 7.82 91.4071 8.14 91.6391 8.564C91.8711 8.988 91.9871 9.5 91.9871 10.1V14H90.6311V10.304C90.6311 9.712 90.4831 9.26 90.1871 8.948C89.8911 8.628 89.4871 8.468 88.9751 8.468C88.4631 8.468 88.0551 8.628 87.7511 8.948C87.4551 9.26 87.3071 9.712 87.3071 10.304V14H85.9391V7.388H87.3071V8.144C87.5311 7.872 87.8151 7.66 88.1591 7.508C88.5111 7.356 88.8831 7.28 89.2751 7.28Z" fill="black"/>
<rect x="0.5" y="0.5" width="13" height="20" rx="6.5" stroke="black"/>
<line x1="7" y1="6" x2="7" y2="8" stroke="black" stroke-width="2" stroke-linecap="round"/>
</svg>
