<svg width="698" height="521" viewBox="0 0 698 521" fill="none" xmlns="http://www.w3.org/2000/svg">
<path d="M698 457.798H0V458.078H698V457.798Z" fill="#EBEBEB"/>
<path d="M605.585 472.76H559.377V473.039H605.585V472.76Z" fill="#EBEBEB"/>
<path d="M437.088 472.619H424.942V472.899H437.088V472.619Z" fill="#EBEBEB"/>
<path d="M628.06 480.31H601.257V480.589H628.06V480.31Z" fill="#EBEBEB"/>
<path d="M159.982 485.064H99.6743V485.344H159.982V485.064Z" fill="#EBEBEB"/>
<path d="M154.817 469.683H146.022V469.962H154.817V469.683Z" fill="#EBEBEB"/>
<path d="M346.766 471.221H261.75V471.5H346.766V471.221Z" fill="#EBEBEB"/>
<path d="M330.852 395.434H61.2844C56.9567 395.434 53.3271 391.799 53.3271 387.464V7.97021C53.3271 3.63553 56.9567 0 61.2844 0H330.852C335.18 0 338.809 3.63553 338.809 7.97021V387.464C338.809 391.939 335.319 395.434 330.852 395.434ZM61.2844 0.279656C57.0963 0.279656 53.6063 3.63553 53.6063 7.97021V387.464C53.6063 391.659 56.9567 395.155 61.2844 395.155H330.852C335.04 395.155 338.53 391.799 338.53 387.464V7.97021C338.53 3.77536 335.18 0.279656 330.852 0.279656H61.2844Z" fill="#EBEBEB"/>
<path d="M632.807 395.434H363.239C358.912 395.434 355.282 391.799 355.282 387.464V7.97021C355.282 3.63553 358.912 0 363.239 0H632.807C637.134 0 640.764 3.63553 640.764 7.97021V387.464C640.764 391.939 637.274 395.434 632.807 395.434ZM363.239 0.279656C359.051 0.279656 355.561 3.63553 355.561 7.97021V387.464C355.561 391.659 358.912 395.155 363.239 395.155H632.807C636.995 395.155 640.485 391.799 640.485 387.464V7.97021C640.485 3.77536 637.134 0.279656 632.807 0.279656H363.239Z" fill="#EBEBEB"/>
<path d="M598.744 57.8892H99.2556V266.093H598.744V57.8892Z" fill="#F0F0F0"/>
<path d="M589.008 256.34V67.7119L109.063 67.7119L109.063 256.34L589.008 256.34Z" fill="#FAFAFA"/>
<path d="M172.266 256.305L221.406 67.6768H257.702L208.562 256.305H172.266Z" fill="white"/>
<path d="M216.938 256.305L266.078 67.6768H282.411L233.132 256.305H216.938Z" fill="white"/>
<path d="M296.371 256.305L345.51 67.6768H381.806L332.667 256.305H296.371Z" fill="white"/>
<path d="M387.809 256.305L437.088 67.6768H453.281L404.142 256.305H387.809Z" fill="white"/>
<path d="M237.662 256.313L237.662 67.6846H235.149L235.149 256.313H237.662Z" fill="#E0E0E0"/>
<path d="M111.576 256.34L111.576 67.7119H109.063L109.063 256.34H111.576Z" fill="#E0E0E0"/>
<path d="M235.165 256.297L235.165 67.6689H225.393L225.393 256.297H235.165Z" fill="#F0F0F0"/>
<path d="M358.823 256.325L358.823 67.6963H356.31L356.31 256.325H358.823Z" fill="#E0E0E0"/>
<path d="M356.326 256.309L356.326 67.6807H346.554L346.554 256.309H356.326Z" fill="#F0F0F0"/>
<path d="M480.042 256.278L480.042 67.6494H477.529L477.529 256.278H480.042Z" fill="#E0E0E0"/>
<path d="M477.545 256.262L477.545 67.6338H467.773L467.773 256.262H477.545Z" fill="#F0F0F0"/>
<path d="M601.261 266.02V57.8154H598.748V266.02H601.261Z" fill="#E0E0E0"/>
<path d="M606.841 43.6264H91.1589C89.9025 43.6264 88.9253 42.6476 88.9253 41.3891C88.9253 40.1307 89.9025 39.1519 91.1589 39.1519H606.702C607.958 39.1519 608.935 40.1307 608.935 41.3891C608.935 42.6476 607.958 43.6264 606.841 43.6264Z" fill="#E0E0E0"/>
<g opacity="0.6">
<path opacity="0.6" d="M198.791 34.957H93.2529V414.87H198.791V34.957Z" fill="#F5F5F5"/>
<path opacity="0.6" d="M150.349 417.946H141.554L144.067 38.1729H147.976L150.349 417.946Z" fill="#E6E6E6"/>
<path opacity="0.6" d="M121.173 417.946H116.845L118.102 38.1729H119.916L121.173 417.946Z" fill="#E6E6E6"/>
<path opacity="0.6" d="M179.805 417.946H175.477L176.734 38.1729H178.549L179.805 417.946Z" fill="#E6E6E6"/>
</g>
<g opacity="0.6">
<path opacity="0.6" d="M603.63 34.957H498.093V414.87H603.63V34.957Z" fill="#F5F5F5"/>
<path opacity="0.6" d="M539.414 417.946H530.48L532.993 38.1729H537.041L539.414 417.946Z" fill="#E6E6E6"/>
<path opacity="0.6" d="M519.87 417.946H515.543L516.799 38.1729H518.754L519.87 417.946Z" fill="#E6E6E6"/>
<path opacity="0.6" d="M564.961 417.946H560.773L561.89 38.1729H563.844L564.961 417.946Z" fill="#E6E6E6"/>
<path opacity="0.6" d="M586.739 417.946H582.411L583.668 38.1729H585.622L586.739 417.946Z" fill="#E6E6E6"/>
</g>
<path d="M454.026 455.436H473.85V341.615H454.026V455.436Z" fill="#E6E6E6"/>
<path d="M224.137 455.436L461.597 455.436V341.615H224.137V455.436Z" fill="#F0F0F0"/>
<path d="M456.352 455.421H449.093H234.388V457.798H449.093H456.352H463.612V455.421H456.352Z" fill="#E0E0E0"/>
<path opacity="0.5" d="M230.978 394.665H454.896V348.801H230.978V394.665Z" fill="#FAFAFA"/>
<path opacity="0.5" d="M230.978 448.061H454.896V402.197H230.978V448.061Z" fill="#FAFAFA"/>
<path d="M264.821 371.803C264.821 374.6 262.588 376.837 259.796 376.837C257.004 376.837 254.77 374.6 254.77 371.803C254.77 369.007 257.004 366.77 259.796 366.77C262.588 366.77 264.821 369.007 264.821 371.803Z" fill="#E0E0E0"/>
<path d="M430.945 371.803C430.945 374.6 428.712 376.837 425.92 376.837C423.128 376.837 420.894 374.6 420.894 371.803C420.894 369.007 423.128 366.77 425.92 366.77C428.712 366.77 430.945 369.007 430.945 371.803Z" fill="#E0E0E0"/>
<path d="M259.796 430.112C262.571 430.112 264.821 427.858 264.821 425.078C264.821 422.298 262.571 420.044 259.796 420.044C257.02 420.044 254.77 422.298 254.77 425.078C254.77 427.858 257.02 430.112 259.796 430.112Z" fill="#E0E0E0"/>
<path d="M430.945 425.078C430.945 427.874 428.712 430.112 425.92 430.112C423.128 430.112 420.894 427.874 420.894 425.078C420.894 422.281 423.128 420.044 425.92 420.044C428.712 420.044 430.945 422.281 430.945 425.078Z" fill="#E0E0E0"/>
<path d="M347.883 371.803C347.883 374.6 345.65 376.837 342.858 376.837C340.066 376.837 337.832 374.6 337.832 371.803C337.832 369.007 340.066 366.77 342.858 366.77C345.65 366.77 347.883 369.007 347.883 371.803Z" fill="#E0E0E0"/>
<path d="M342.858 430.112C345.633 430.112 347.883 427.858 347.883 425.078C347.883 422.298 345.633 420.044 342.858 420.044C340.082 420.044 337.832 422.298 337.832 425.078C337.832 427.858 340.082 430.112 342.858 430.112Z" fill="#E0E0E0"/>
<path d="M446.999 322.304C446.999 332.931 438.344 341.6 427.735 341.6C417.125 341.6 408.47 332.931 408.47 322.304H446.999Z" fill="#F0F0F0"/>
<path d="M294.417 318.948C294.417 331.533 284.226 341.74 271.662 341.74C259.098 341.74 248.907 331.533 248.907 318.948H294.417Z" fill="#F0F0F0"/>
<path d="M392.136 328.316C392.136 335.727 386.134 341.74 378.735 341.74C371.336 341.74 365.333 335.727 365.333 328.316H392.136Z" fill="#F0F0F0"/>
<path d="M349 521C498.495 521 619.684 513.925 619.684 505.199C619.684 496.473 498.495 489.398 349 489.398C199.505 489.398 78.3157 496.473 78.3157 505.199C78.3157 513.925 199.505 521 349 521Z" fill="#F5F5F5"/>
<path d="M399.889 324.981L384.991 326.062L385.092 327.457L399.99 326.376L399.889 324.981Z" fill="url(#paint0_linear_1530:3880)"/>
<path d="M413.161 324.006L405.921 324.531L406.022 325.926L413.262 325.4L413.161 324.006Z" fill="url(#paint1_linear_1530:3880)"/>
<path d="M477.432 159.824L231.038 177.722C220.429 178.561 212.332 187.929 213.03 198.556L221.406 314.893C222.243 325.52 231.597 333.63 242.206 332.931L256.166 331.952C258.26 331.812 260.075 333.351 260.215 335.448L261.75 356.982C261.89 358.799 264.263 359.638 265.38 358.24L288.693 331.253C289.67 330.135 291.066 329.435 292.602 329.296L488.6 315.033C499.21 314.194 507.306 304.826 506.608 294.199L498.233 177.862C497.395 167.235 488.042 159.125 477.432 159.824Z" fill="url(#paint2_linear_1530:3880)"/>
<path d="M266.915 230.997L280.177 230.018L281.294 245.119L295.812 244.001L294.696 228.899L308.097 227.92L311.308 271.267L297.906 272.246L296.65 254.767L282.132 255.886L283.388 273.365L270.126 274.343L266.915 230.997Z" fill="white"/>
<path d="M353.049 255.466L329.037 257.144C329.456 259.102 330.015 260.5 330.852 261.339C332.109 262.598 333.644 263.157 335.459 263.017C336.576 262.877 337.693 262.598 338.809 261.898C339.368 261.479 340.066 260.78 340.764 259.801L352.63 260.081C351.094 263.297 349 265.814 346.627 267.352C344.114 268.89 340.624 269.869 335.878 270.148C331.69 270.428 328.479 270.148 325.966 269.169C323.453 268.191 321.359 266.513 319.684 263.996C318.009 261.619 316.892 258.682 316.753 255.187C316.334 250.293 317.73 246.238 320.522 243.022C323.453 239.806 327.641 237.988 333.086 237.568C337.553 237.289 341.183 237.708 343.835 238.827C346.487 239.945 348.581 241.763 350.117 244.28C351.653 246.797 352.63 250.013 352.909 254.208L353.049 255.466ZM340.485 250.572C340.066 248.335 339.368 246.657 338.251 245.678C337.134 244.7 335.738 244.28 334.203 244.42C332.248 244.56 330.852 245.399 329.875 247.077C329.177 248.055 328.898 249.454 328.758 251.411L340.485 250.572Z" fill="white"/>
<path d="M356.818 224.565L368.823 223.726L371.894 266.932L359.889 267.771L356.818 224.565Z" fill="white"/>
<path d="M376.781 223.166L388.786 222.327L391.857 265.534L379.852 266.373L376.781 223.166Z" fill="white"/>
<path d="M397.023 249.453C396.743 244.699 398 240.644 400.931 237.288C403.863 233.932 408.191 232.115 413.635 231.695C419.917 231.276 424.803 232.674 428.153 236.17C430.945 238.966 432.481 242.462 432.76 246.657C433.039 251.411 431.783 255.466 428.851 258.822C425.92 262.178 421.592 263.996 416.008 264.415C410.983 264.835 406.795 263.856 403.584 261.479C399.535 258.542 397.302 254.487 397.023 249.453ZM409.028 248.475C409.168 251.271 410.005 253.229 411.122 254.487C412.379 255.746 413.775 256.305 415.45 256.165C417.125 256.025 418.521 255.326 419.498 253.928C420.475 252.53 420.894 250.432 420.755 247.496C420.615 244.839 419.917 242.881 418.661 241.623C417.404 240.365 416.008 239.805 414.333 239.945C412.658 240.085 411.262 240.784 410.145 242.322C409.168 243.72 408.749 245.818 409.028 248.475Z" fill="white"/>
<path d="M436.669 218.831L449.512 217.853L450.21 227.641L449.233 247.636L441.276 248.195L437.507 228.619L436.669 218.831ZM439.461 251.271L451.327 250.433L452.025 261.059L440.159 261.898L439.461 251.271Z" fill="white"/>
<defs>
<linearGradient id="paint0_linear_1530:3880" x1="382.188" y1="323.09" x2="393.683" y2="336.434" gradientUnits="userSpaceOnUse">
<stop stop-color="#5D23E9"/>
<stop offset="1" stop-color="#6DA7F0"/>
</linearGradient>
<linearGradient id="paint1_linear_1530:3880" x1="404.441" y1="321.462" x2="414.942" y2="327.298" gradientUnits="userSpaceOnUse">
<stop stop-color="#5D23E9"/>
<stop offset="1" stop-color="#6DA7F0"/>
</linearGradient>
<linearGradient id="paint2_linear_1530:3880" x1="162.24" y1="-291.436" x2="723.705" y2="-187.073" gradientUnits="userSpaceOnUse">
<stop stop-color="#5D23E9"/>
<stop offset="1" stop-color="#6DA7F0"/>
</linearGradient>
</defs>
</svg>
