<svg width="433" height="433" viewBox="0 0 433 433" fill="none" xmlns="http://www.w3.org/2000/svg">
<path d="M149.25 31.1924C77.2596 31.1924 20.5146 92.4919 26.0602 164.268L28.6114 197.281C28.7478 199.043 28.3184 200.801 27.3849 202.302L20.5883 213.238C11.3191 228.151 6.40625 245.36 6.40625 262.92C6.40625 265.457 8.46287 267.513 10.9989 267.513H31.8895L41.367 322.603C42.9857 332.01 51.1258 338.896 60.6711 338.934L116.368 339.151C125.233 339.186 132.402 346.383 132.402 355.248V389.017C132.402 396.067 138.14 401.771 145.191 401.729L184.134 401.586L191.985 396.203H246.402L249.012 401.347L249.229 401.346L249.17 285.778L274.909 200.217C300.243 116.002 237.192 31.1924 149.25 31.1924Z" fill="url(#paint0_linear_1530:3789)"/>
<path d="M412.686 213.089L405.89 202.154C404.957 200.654 404.528 198.895 404.663 197.133L407.214 164.119C412.761 92.3435 356.015 31.0439 284.026 31.0439C196.083 31.0439 133.032 115.853 158.366 200.068L184.105 285.629L184.136 401.494H184.226C184.402 401.315 193.114 392.485 193.114 392.485H244.376L249.116 401.548L288.085 401.581C295.135 401.623 300.873 395.92 300.873 388.869V355.1C300.873 346.235 308.042 339.038 316.907 339.004L372.604 338.786C382.15 338.749 390.29 331.862 391.908 322.455L401.386 267.365H422.276C424.813 267.365 426.869 265.309 426.869 262.772C426.868 245.212 421.955 228.002 412.686 213.089Z" fill="url(#paint1_linear_1530:3789)"/>
<path d="M249.114 286.181L274.853 200.62C292.993 140.317 265.703 79.195 216.517 49.6392C167.331 79.195 140.255 140.317 158.396 200.62L184.135 286.181V401.586L216.625 401.701L249.115 401.549V286.181H249.114Z" fill="url(#paint2_linear_1530:3789)"/>
<path d="M96.174 256.403L135.447 223.493C138.169 221.211 142.317 223.147 142.317 226.699V243.75H201.599C203.978 243.75 205.906 245.677 205.906 248.056V271.163C205.906 273.542 203.978 275.47 201.599 275.47H142.317V292.521C142.317 296.072 138.169 298.008 135.447 295.727L96.174 262.816C94.1783 261.144 94.1783 258.076 96.174 256.403Z" fill="white"/>
<path d="M358.48 137.415L319.207 104.504C316.485 102.223 312.337 104.158 312.337 107.71V124.761H253.055C250.676 124.761 248.748 126.689 248.748 129.067V152.174C248.748 154.553 250.676 156.481 253.055 156.481H312.337V173.532C312.337 177.083 316.485 179.019 319.207 176.738L358.48 143.827C360.475 142.155 360.475 139.086 358.48 137.415Z" fill="white"/>
<defs>
<linearGradient id="paint0_linear_1530:3789" x1="143.482" y1="31.1924" x2="143.482" y2="401.729" gradientUnits="userSpaceOnUse">
<stop stop-color="#5D23E9"/>
<stop offset="1" stop-color="#6DA7F0"/>
</linearGradient>
<linearGradient id="paint1_linear_1530:3789" x1="105.341" y1="-808.454" x2="642.937" y2="-758.313" gradientUnits="userSpaceOnUse">
<stop stop-color="#FA94FC"/>
<stop offset="1" stop-color="#86BDFE"/>
</linearGradient>
<linearGradient id="paint2_linear_1530:3789" x1="216.612" y1="49.6392" x2="-66.8855" y2="275.341" gradientUnits="userSpaceOnUse">
<stop stop-color="#BE6CFD"/>
<stop offset="1" stop-color="#7367FF"/>
</linearGradient>
</defs>
</svg>
